<svg width="100" height="97" viewBox="0 0 100 97" fill="none" xmlns="http://www.w3.org/2000/svg">
<mask id="path-1-inside-1_190_1333" fill="white">
<path fill-rule="evenodd" clip-rule="evenodd" d="M97.8497 83.783L95.1188 80.9027C93.6677 76.5132 89.5166 72.1344 85.2116 70.4537L82.6087 67.7086C83.8103 66.7515 85.6468 66.4967 87.8879 67.1626C92.6815 68.5868 97.5107 73.6841 98.674 78.5477C99.2168 80.817 98.8657 82.6344 97.8497 83.783ZM98.0734 84.0189C99.124 82.8371 99.488 80.9636 98.9282 78.6232C97.7308 73.6172 92.7602 68.3707 87.8262 66.9047C85.1942 66.1227 83.1043 66.5744 81.9088 67.926L78.7256 70.7563L78.7506 70.784C77.4186 71.9235 76.901 73.9467 77.5227 76.5459C78.7201 81.5519 83.6906 86.7984 88.6247 88.2644C91.1901 89.0266 93.2406 88.6167 94.4497 87.3438L97.5664 84.4945C97.7239 84.3715 97.8711 84.237 98.0073 84.0914L98.0796 84.0254L98.0734 84.0189Z"/>
</mask>
<path fill-rule="evenodd" clip-rule="evenodd" d="M97.8497 83.783L95.1188 80.9027C93.6677 76.5132 89.5166 72.1344 85.2116 70.4537L82.6087 67.7086C83.8103 66.7515 85.6468 66.4967 87.8879 67.1626C92.6815 68.5868 97.5107 73.6841 98.674 78.5477C99.2168 80.817 98.8657 82.6344 97.8497 83.783ZM98.0734 84.0189C99.124 82.8371 99.488 80.9636 98.9282 78.6232C97.7308 73.6172 92.7602 68.3707 87.8262 66.9047C85.1942 66.1227 83.1043 66.5744 81.9088 67.926L78.7256 70.7563L78.7506 70.784C77.4186 71.9235 76.901 73.9467 77.5227 76.5459C78.7201 81.5519 83.6906 86.7984 88.6247 88.2644C91.1901 89.0266 93.2406 88.6167 94.4497 87.3438L97.5664 84.4945C97.7239 84.3715 97.8711 84.237 98.0073 84.0914L98.0796 84.0254L98.0734 84.0189Z" fill="#78C2FF"/>
<path d="M95.1188 80.9027L95.0195 80.9355L95.0268 80.9577L95.0429 80.9747L95.1188 80.9027ZM97.8497 83.783L97.7738 83.8549L97.8524 83.9378L97.9281 83.8523L97.8497 83.783ZM85.2116 70.4537L85.1357 70.5257L85.1517 70.5427L85.1735 70.5512L85.2116 70.4537ZM82.6087 67.7086L82.5435 67.6268L82.4544 67.6978L82.5328 67.7805L82.6087 67.7086ZM87.8879 67.1626L87.8581 67.2628L87.8879 67.1626ZM98.674 78.5477L98.5723 78.572L98.674 78.5477ZM98.0734 84.0189L97.9953 83.9494L97.9315 84.0212L97.9975 84.0909L98.0734 84.0189ZM98.9282 78.6232L98.8265 78.6476L98.9282 78.6232ZM87.8262 66.9047L87.7964 67.0049L87.8262 66.9047ZM81.9088 67.926L81.9788 68.0047L81.9872 67.9953L81.9088 67.926ZM78.7256 70.7563L78.6561 70.6782L78.5771 70.7484L78.6481 70.8266L78.7256 70.7563ZM78.7506 70.784L78.8186 70.8634L78.9005 70.7934L78.8281 70.7136L78.7506 70.784ZM88.6247 88.2644L88.5949 88.3647L88.5949 88.3647L88.6247 88.2644ZM94.4497 87.3438L94.379 87.2664L94.3739 87.2718L94.4497 87.3438ZM97.5664 84.4945L97.5019 84.4118L97.4959 84.4173L97.5664 84.4945ZM98.0073 84.0914L97.9365 84.014L97.9309 84.02L98.0073 84.0914ZM98.0796 84.0254L98.1501 84.1026L98.2287 84.0307L98.1555 83.9534L98.0796 84.0254ZM95.0429 80.9747L97.7738 83.8549L97.9256 83.711L95.1947 80.8307L95.0429 80.9747ZM85.1735 70.5512C89.4495 72.2204 93.5782 76.5756 95.0195 80.9355L95.2181 80.8699C93.7573 76.4509 89.5836 72.0483 85.2496 70.3563L85.1735 70.5512ZM82.5328 67.7805L85.1357 70.5257L85.2874 70.3818L82.6846 67.6366L82.5328 67.7805ZM87.9176 67.0623C85.6568 66.3906 83.7809 66.6412 82.5435 67.6268L82.6739 67.7904C83.8397 66.8618 85.6369 66.6029 87.8581 67.2628L87.9176 67.0623ZM98.7758 78.5234C98.1888 76.0695 96.6794 73.5636 94.7182 71.4935C92.757 69.4234 90.3362 67.7809 87.9176 67.0623L87.8581 67.2628C90.2332 67.9685 92.6237 69.5868 94.5664 71.6373C96.509 73.6878 97.9959 76.1623 98.5723 78.572L98.7758 78.5234ZM97.9281 83.8523C98.9743 82.6695 99.3234 80.8127 98.7758 78.5234L98.5723 78.572C99.1103 80.8212 98.7571 82.5993 97.7714 83.7137L97.9281 83.8523ZM98.1516 84.0884C99.2326 82.8724 99.5946 80.9594 99.0299 78.5989L98.8265 78.6476C99.3815 80.9679 99.0154 82.8018 97.9953 83.9494L98.1516 84.0884ZM99.0299 78.5989C98.4259 76.0738 96.8727 73.495 94.8543 71.3645C92.836 69.2341 90.3447 67.5439 87.856 66.8044L87.7964 67.0049C90.2417 67.7315 92.7027 69.3975 94.7025 71.5084C96.7023 73.6192 98.233 76.1666 98.8265 78.6476L99.0299 78.5989ZM87.856 66.8044C85.2015 66.0158 83.0627 66.4636 81.8305 67.8567L81.9872 67.9953C83.1459 66.6853 85.1869 66.2296 87.7964 67.0049L87.856 66.8044ZM78.7951 70.8345L81.9783 68.0041L81.8393 67.8478L78.6561 70.6782L78.7951 70.8345ZM78.8281 70.7136L78.803 70.686L78.6481 70.8266L78.6732 70.8543L78.8281 70.7136ZM77.6244 76.5215C77.008 73.9446 77.5271 71.9683 78.8186 70.8634L78.6827 70.7045C77.31 71.8787 76.7939 73.9489 77.4209 76.5702L77.6244 76.5215ZM88.6545 88.1641C86.2092 87.4376 83.7482 85.7716 81.7484 83.6607C79.7486 81.5499 78.2178 79.0025 77.6244 76.5215L77.4209 76.5702C78.0249 79.0953 79.5782 81.6741 81.5965 83.8046C83.6149 85.935 86.1061 87.6252 88.5949 88.3647L88.6545 88.1641ZM94.3739 87.2718C93.2016 88.5059 91.198 88.9199 88.6545 88.1641L88.5949 88.3647C91.1823 89.1334 93.2796 88.7275 94.5255 87.4159L94.3739 87.2718ZM97.4959 84.4173L94.3791 87.2666L94.5203 87.421L97.637 84.5717L97.4959 84.4173ZM97.6308 84.5769C97.7926 84.4506 97.9437 84.3125 98.0837 84.1629L97.9309 84.02C97.7984 84.1616 97.6553 84.2924 97.5021 84.412L97.6308 84.5769ZM98.009 83.9482L97.9367 84.0142L98.0779 84.1686L98.1501 84.1026L98.009 83.9482ZM97.9975 84.0909L98.0037 84.0973L98.1555 83.9534L98.1493 83.9469L97.9975 84.0909Z" fill="#754F9A" mask="url(#path-1-inside-1_190_1333)"/>
<path d="M98.6636 78.5447C99.8256 83.4024 96.8862 86.1871 92.0983 84.7646C87.3104 83.342 82.4871 78.2508 81.3251 73.3931C80.1631 68.5354 83.1025 65.7506 87.8904 67.1732C92.6783 68.5958 97.5016 73.6869 98.6636 78.5447Z" fill="#FF855E" stroke="#754F9A" stroke-width="0.104592"/>
<path d="M87.1561 74.6491L92.026 81.5257L92.0603 81.669L92.1225 81.5244L94.1893 76.7251L94.2758 76.7091L94.2163 76.6624L94.239 76.6096L94.166 76.623L90.2205 73.5276L90.2112 73.4889L90.1835 73.4986L90.0881 73.4238L90.112 73.5239L87.1759 74.5619L87.0787 74.5962L87.1561 74.6491ZM93.9598 76.0501L94.0334 75.9768L89.371 69.9766L89.3433 69.8605L89.2776 69.9734L86.986 73.9145L86.9145 74.0374L87.0486 73.9901L90.0043 72.948L93.9598 76.0501Z" fill="#78C2FF" stroke="#754F9A" stroke-width="0.104592"/>
<path d="M92.0745 81.5035L94.1523 76.6786L91.057 77.2496L92.0745 81.5035Z" fill="#71D4FE"/>
<path d="M91.057 77.2496L94.1523 76.6787L90.1738 73.5576L91.057 77.2496Z" fill="#78C2FF"/>
<path d="M87.1933 74.6112L92.0745 81.5037L91.0569 77.2497L87.1933 74.6112Z" fill="#78C2FF"/>
<path d="M90.1737 73.5576L87.1933 74.6111L91.0569 77.2496L90.1737 73.5576Z" fill="#8194FF"/>
<path d="M93.9921 76.009L89.3228 69.9998L90.0139 72.8892L93.9921 76.009Z" fill="#71D4FE"/>
<path d="M90.0139 72.8892L89.3227 69.9998L87.0312 73.9408L90.0139 72.8892Z" fill="#78C2FF"/>
<mask id="path-11-outside-2_190_1333" maskUnits="userSpaceOnUse" x="18.6087" y="11.4056" width="65" height="84" fill="black">
<rect fill="white" x="18.6087" y="11.4056" width="65" height="84"/>
<path fill-rule="evenodd" clip-rule="evenodd" d="M19.6087 17.7585L27.6938 22.3384L27.6938 44.3301C27.6938 47.5452 29.9616 51.436 32.759 53.0206L71.3537 74.8828V94.4507C71.3537 94.808 71.6056 94.9548 71.9165 94.7788L81.3079 89.4589C82.2404 88.9307 82.9963 87.6338 82.9963 86.5621V75.6757C82.9963 75.6693 82.9963 75.663 82.9963 75.6566V47.3543C82.9963 47.3479 82.9963 47.3415 82.9963 47.3352V46.7137C82.9963 46.6142 82.9768 46.531 82.9418 46.4666C82.5831 43.4682 80.4957 40.1374 77.9682 38.6849C77.7937 38.5545 77.6014 38.4293 77.3913 38.3103L32.6105 12.9439C32.2392 12.7336 31.7991 12.5861 31.3312 12.5014C30.9551 12.4151 30.5972 12.3879 30.2629 12.4165C29.4806 12.4299 28.7053 12.6057 28.1081 12.9439L19.6087 17.7585Z"/>
</mask>
<path fill-rule="evenodd" clip-rule="evenodd" d="M19.6087 17.7585L27.6938 22.3384L27.6938 44.3301C27.6938 47.5452 29.9616 51.436 32.759 53.0206L71.3537 74.8828V94.4507C71.3537 94.808 71.6056 94.9548 71.9165 94.7788L81.3079 89.4589C82.2404 88.9307 82.9963 87.6338 82.9963 86.5621V75.6757C82.9963 75.6693 82.9963 75.663 82.9963 75.6566V47.3543C82.9963 47.3479 82.9963 47.3415 82.9963 47.3352V46.7137C82.9963 46.6142 82.9768 46.531 82.9418 46.4666C82.5831 43.4682 80.4957 40.1374 77.9682 38.6849C77.7937 38.5545 77.6014 38.4293 77.3913 38.3103L32.6105 12.9439C32.2392 12.7336 31.7991 12.5861 31.3312 12.5014C30.9551 12.4151 30.5972 12.3879 30.2629 12.4165C29.4806 12.4299 28.7053 12.6057 28.1081 12.9439L19.6087 17.7585Z" fill="#FF855E"/>
<path d="M27.6938 22.3384H28.0172V22.1499L27.8532 22.057L27.6938 22.3384ZM19.6087 17.7585L19.4493 17.4771L18.9525 17.7585L19.4493 18.0399L19.6087 17.7585ZM27.6938 44.3301H27.3704H27.6938ZM32.759 53.0206L32.5996 53.302L32.759 53.0206ZM71.3537 74.8828H71.6771V74.6943L71.5131 74.6014L71.3537 74.8828ZM71.9165 94.7788L71.7571 94.4974H71.7571L71.9165 94.7788ZM81.3079 89.4589L81.1485 89.1775L81.3079 89.4589ZM82.9963 75.6757L82.6729 75.6747V75.6757H82.9963ZM82.9963 47.3352H82.6729L82.6729 47.3361L82.9963 47.3352ZM82.9418 46.4666L82.6207 46.505L82.6281 46.5664L82.6575 46.6207L82.9418 46.4666ZM77.9682 38.6849L77.7747 38.944L77.7902 38.9556L77.8071 38.9653L77.9682 38.6849ZM77.3913 38.3103L77.5507 38.0289L77.3913 38.3103ZM32.6105 12.9439L32.7699 12.6625V12.6625L32.6105 12.9439ZM31.3312 12.5014L31.2589 12.8166L31.2662 12.8183L31.2736 12.8196L31.3312 12.5014ZM30.2629 12.4165L30.2684 12.7399L30.2795 12.7397L30.2905 12.7388L30.2629 12.4165ZM28.1081 12.9439L28.2675 13.2253L28.1081 12.9439ZM27.8532 22.057L19.7681 17.4771L19.4493 18.0399L27.5344 22.6198L27.8532 22.057ZM28.0172 44.3301L28.0172 22.3384H27.3704L27.3704 44.3301H28.0172ZM32.9184 52.7392C31.5811 51.9817 30.3521 50.6601 29.4568 49.1239C28.5614 47.5877 28.0172 45.8671 28.0172 44.3301H27.3704C27.3704 46.0082 27.9601 47.8405 28.898 49.4496C29.8358 51.0588 31.1395 52.4749 32.5996 53.302L32.9184 52.7392ZM71.5131 74.6014L32.9184 52.7392L32.5996 53.302L71.1943 75.1642L71.5131 74.6014ZM71.6771 94.4507V74.8828H71.0303V94.4507H71.6771ZM71.7571 94.4974C71.7114 94.5232 71.6826 94.5288 71.6715 94.5297C71.6622 94.5304 71.6688 94.528 71.6814 94.5353C71.6939 94.5426 71.6951 94.5495 71.6912 94.5411C71.6864 94.531 71.6771 94.5032 71.6771 94.4507H71.0303C71.0303 94.6983 71.1201 94.9569 71.3557 95.0942C71.5912 95.2314 71.8605 95.1822 72.0759 95.0602L71.7571 94.4974ZM81.1485 89.1775L71.7571 94.4974L72.0759 95.0602L81.4673 89.7403L81.1485 89.1775ZM82.6729 86.5621C82.6729 87.0274 82.5067 87.5637 82.2224 88.0515C81.9381 88.5392 81.5534 88.9482 81.1485 89.1775L81.4673 89.7403C81.995 89.4414 82.4544 88.9378 82.7812 88.3772C83.108 87.8165 83.3197 87.1685 83.3197 86.5621H82.6729ZM82.6729 75.6757V86.5621H83.3197V75.6757H82.6729ZM82.6729 75.6566C82.6729 75.6627 82.6729 75.6687 82.6729 75.6747L83.3197 75.6766C83.3197 75.6699 83.3197 75.6632 83.3197 75.6566H82.6729ZM82.6729 47.3543V75.6566H83.3197V47.3543H82.6729ZM82.6729 47.3361C82.6729 47.3421 82.6729 47.3482 82.6729 47.3543H83.3197C83.3197 47.3477 83.3197 47.341 83.3197 47.3342L82.6729 47.3361ZM82.6729 46.7137V47.3352H83.3197V46.7137H82.6729ZM82.6575 46.6207C82.6612 46.6275 82.6729 46.6549 82.6729 46.7137H83.3197C83.3197 46.5735 83.2923 46.4346 83.2262 46.3125L82.6575 46.6207ZM77.8071 38.9653C80.2386 40.3627 82.273 43.5992 82.6207 46.505L83.263 46.4282C82.8931 43.3372 80.7528 39.9122 78.1294 38.4045L77.8071 38.9653ZM77.2319 38.5917C77.431 38.7045 77.6118 38.8223 77.7747 38.944L78.1618 38.4258C77.9755 38.2867 77.7718 38.1541 77.5507 38.0289L77.2319 38.5917ZM32.4511 13.2253L77.2319 38.5917L77.5507 38.0289L32.7699 12.6625L32.4511 13.2253ZM31.2736 12.8196C31.7132 12.8992 32.1175 13.0363 32.4511 13.2253L32.7699 12.6625C32.361 12.4309 31.8849 12.273 31.3888 12.1832L31.2736 12.8196ZM30.2905 12.7388C30.5877 12.7133 30.9118 12.737 31.2589 12.8166L31.4035 12.1862C30.9983 12.0932 30.6066 12.0625 30.2353 12.0943L30.2905 12.7388ZM28.2675 13.2253C28.8065 12.92 29.5256 12.7526 30.2684 12.7399L30.2574 12.0932C29.4355 12.1072 28.604 12.2913 27.9487 12.6625L28.2675 13.2253ZM19.7681 18.0399L28.2675 13.2253L27.9487 12.6625L19.4493 17.4771L19.7681 18.0399Z" fill="#754F9A" mask="url(#path-11-outside-2_190_1333)"/>
<path fill-rule="evenodd" clip-rule="evenodd" d="M32.6105 12.9437C31.3672 12.2395 29.3514 12.2395 28.1082 12.9437L19.6087 17.7583L27.6938 22.3381L69.5577 46.0523C70.801 46.7565 72.8168 46.7565 74.0601 46.0523L78.0572 43.7881C80.076 42.6445 80.4558 40.924 79.1964 39.5634C78.8035 39.2247 78.3921 38.9283 77.9684 38.6848C77.7994 38.5585 77.6138 38.4372 77.4116 38.3216C77.4048 38.3177 77.3981 38.3139 77.3913 38.3101L32.6105 12.9437Z" fill="#FFE15F"/>
<mask id="path-14-outside-3_190_1333" maskUnits="userSpaceOnUse" x="26.31" y="14.5474" width="56" height="78" fill="black">
<rect fill="white" x="26.31" y="14.5474" width="56" height="78"/>
<path fill-rule="evenodd" clip-rule="evenodd" d="M33.9985 16.1964C32.4684 15.3311 29.9877 15.3311 28.4576 16.1964C26.9275 17.0616 26.9275 18.4644 28.4576 19.3296L31.2513 20.9094V20.9457L70.5165 43.1494C73.3008 44.7239 75.5579 48.5529 75.5579 51.7019V84.641L75.558 84.6411V91.9448C75.558 92.1234 75.684 92.1969 75.8395 92.109L80.7744 89.3184C80.9299 89.2305 81.0559 89.0144 81.0559 88.8358V50.1526L81.0558 50.13V48.4757C81.0558 45.3267 78.7987 41.4977 76.0144 39.9232L36.2927 17.4613C36.1101 17.3581 35.9299 17.2671 35.7523 17.1881L33.9985 16.1964Z"/>
</mask>
<path fill-rule="evenodd" clip-rule="evenodd" d="M33.9985 16.1964C32.4684 15.3311 29.9877 15.3311 28.4576 16.1964C26.9275 17.0616 26.9275 18.4644 28.4576 19.3296L31.2513 20.9094V20.9457L70.5165 43.1494C73.3008 44.7239 75.5579 48.5529 75.5579 51.7019V84.641L75.558 84.6411V91.9448C75.558 92.1234 75.684 92.1969 75.8395 92.109L80.7744 89.3184C80.9299 89.2305 81.0559 89.0144 81.0559 88.8358V50.1526L81.0558 50.13V48.4757C81.0558 45.3267 78.7987 41.4977 76.0144 39.9232L36.2927 17.4613C36.1101 17.3581 35.9299 17.2671 35.7523 17.1881L33.9985 16.1964Z" fill="#754F9A"/>
<path d="M28.4576 16.1964L28.2984 15.9148L28.4576 16.1964ZM33.9985 16.1964L34.1577 15.9148H34.1577L33.9985 16.1964ZM28.4576 19.3296L28.6168 19.0481L28.4576 19.3296ZM31.2513 20.9094H31.5747V20.7208L31.4105 20.6279L31.2513 20.9094ZM31.2513 20.9457H30.9279V21.1343L31.0921 21.2272L31.2513 20.9457ZM70.5165 43.1494L70.6757 42.8679L70.5165 43.1494ZM75.5579 84.641H75.2345V84.8313L75.4009 84.9237L75.5579 84.641ZM75.558 84.6411H75.8814V84.4508L75.7151 84.3584L75.558 84.6411ZM75.8395 92.109L75.6803 91.8275L75.6803 91.8275L75.8395 92.109ZM80.7744 89.3184L80.9336 89.5999H80.9336L80.7744 89.3184ZM81.0559 50.1526H81.3793L81.3793 50.1516L81.0559 50.1526ZM81.0558 50.13H80.7324L80.7324 50.131L81.0558 50.13ZM76.0144 39.9232L76.1736 39.6417H76.1736L76.0144 39.9232ZM36.2927 17.4613L36.1335 17.7428L36.1335 17.7428L36.2927 17.4613ZM35.7523 17.1881L35.5932 17.4697L35.6067 17.4773L35.6209 17.4836L35.7523 17.1881ZM28.6168 16.4779C29.3216 16.0793 30.266 15.8708 31.228 15.8708C32.19 15.8708 33.1345 16.0793 33.8393 16.4779L34.1577 15.9148C33.3324 15.4482 32.2714 15.224 31.228 15.224C30.1846 15.224 29.1236 15.4482 28.2984 15.9148L28.6168 16.4779ZM28.6168 19.0481C27.9091 18.648 27.6334 18.1703 27.6334 17.763C27.6334 17.3557 27.9091 16.878 28.6168 16.4779L28.2984 15.9148C27.476 16.3799 26.9866 17.0363 26.9866 17.763C26.9866 18.4897 27.476 19.1461 28.2984 19.6111L28.6168 19.0481ZM31.4105 20.6279L28.6168 19.0481L28.2984 19.6111L31.0921 21.1909L31.4105 20.6279ZM31.5747 20.9457V20.9094H30.9279V20.9457H31.5747ZM70.6757 42.8679L31.4105 20.6641L31.0921 21.2272L70.3573 43.4309L70.6757 42.8679ZM75.8813 51.7019C75.8813 50.0558 75.2936 48.2549 74.3599 46.671C73.4261 45.0868 72.1284 43.6894 70.6757 42.8679L70.3573 43.4309C71.6889 44.1839 72.9119 45.4883 73.8027 46.9994C74.6937 48.5109 75.2345 50.1991 75.2345 51.7019H75.8813ZM75.8813 84.641V51.7019H75.2345V84.641H75.8813ZM75.7151 84.3584L75.715 84.3583L75.4009 84.9237L75.4009 84.9238L75.7151 84.3584ZM75.8814 91.9448V84.6411H75.2346V91.9448H75.8814ZM75.6803 91.8275C75.6627 91.8374 75.7208 91.7993 75.8034 91.8475C75.886 91.8956 75.8814 91.965 75.8814 91.9448H75.2346C75.2346 92.1031 75.293 92.2986 75.4775 92.4062C75.662 92.5138 75.8609 92.4684 75.9987 92.3905L75.6803 91.8275ZM80.6152 89.0369L75.6803 91.8275L75.9987 92.3905L80.9336 89.5999L80.6152 89.0369ZM80.7325 88.8358C80.7325 88.8545 80.7238 88.8973 80.6941 88.9482C80.6644 88.999 80.6315 89.0277 80.6152 89.0369L80.9336 89.5999C81.0728 89.5212 81.1806 89.3979 81.2528 89.2741C81.325 89.1502 81.3793 88.9957 81.3793 88.8358H80.7325ZM80.7325 50.1526V88.8358H81.3793V50.1526H80.7325ZM80.7324 50.131L80.7325 50.1536L81.3793 50.1516L81.3792 50.129L80.7324 50.131ZM80.7324 48.4757V50.13H81.3792V48.4757H80.7324ZM75.8552 40.2047C77.1868 40.9577 78.4099 42.2621 79.3006 43.7733C80.1916 45.2847 80.7324 46.9729 80.7324 48.4757H81.3792C81.3792 46.8296 80.7915 45.0287 79.8578 43.4448C78.924 41.8606 77.6263 40.4632 76.1736 39.6417L75.8552 40.2047ZM36.1335 17.7428L75.8552 40.2047L76.1736 39.6417L36.4519 17.1798L36.1335 17.7428ZM35.6209 17.4836C35.7884 17.5582 35.9595 17.6444 36.1335 17.7428L36.4519 17.1798C36.2608 17.0718 36.0713 16.9761 35.8838 16.8927L35.6209 17.4836ZM33.8393 16.4779L35.5932 17.4697L35.9115 16.9066L34.1577 15.9148L33.8393 16.4779Z" fill="#754F9A" mask="url(#path-14-outside-3_190_1333)"/>
<mask id="path-16-outside-4_190_1333" maskUnits="userSpaceOnUse" x="29.2811" y="14.6243" width="53" height="76" fill="black">
<rect fill="white" x="29.2811" y="14.6243" width="53" height="76"/>
<path fill-rule="evenodd" clip-rule="evenodd" d="M32.254 15.6243C32.893 15.722 33.4968 15.9126 33.9985 16.1963L35.7525 17.1882C35.9299 17.2671 36.1102 17.3581 36.2926 17.4613L69.2466 36.0961L69.2503 36.0982L76.9163 40.5242C77.4094 40.9037 77.8775 41.3502 78.3095 41.8448C79.9399 43.7112 81.0558 46.2615 81.0558 48.4756C81.0558 48.4756 81.0558 48.4756 81.0558 48.4756V50.1268V50.1269L81.0559 50.1525V50.1525V86.9838C81.0559 89.8416 79.0496 90.9999 76.5746 89.571L75.558 88.9841L75.5579 51.7018V51.7018C75.5579 51.3082 75.5226 50.904 75.4555 50.4948C75.1533 48.6537 74.2053 46.7135 72.9196 45.1964C72.2052 44.3536 71.3866 43.6414 70.5165 43.1494L31.2512 20.9456V20.9456V20.9093V20.9093L30.2811 20.3607V18.7738C30.2811 16.9891 31.0636 15.8672 32.254 15.6243Z"/>
</mask>
<path fill-rule="evenodd" clip-rule="evenodd" d="M32.254 15.6243C32.893 15.722 33.4968 15.9126 33.9985 16.1963L35.7525 17.1882C35.9299 17.2671 36.1102 17.3581 36.2926 17.4613L69.2466 36.0961L69.2503 36.0982L76.9163 40.5242C77.4094 40.9037 77.8775 41.3502 78.3095 41.8448C79.9399 43.7112 81.0558 46.2615 81.0558 48.4756C81.0558 48.4756 81.0558 48.4756 81.0558 48.4756V50.1268V50.1269L81.0559 50.1525V50.1525V86.9838C81.0559 89.8416 79.0496 90.9999 76.5746 89.571L75.558 88.9841L75.5579 51.7018V51.7018C75.5579 51.3082 75.5226 50.904 75.4555 50.4948C75.1533 48.6537 74.2053 46.7135 72.9196 45.1964C72.2052 44.3536 71.3866 43.6414 70.5165 43.1494L31.2512 20.9456V20.9456V20.9093V20.9093L30.2811 20.3607V18.7738C30.2811 16.9891 31.0636 15.8672 32.254 15.6243Z" fill="#F8B7D7"/>
<path d="M33.9985 16.1963L33.8393 16.4778L33.9985 16.1963ZM32.254 15.6243L32.3029 15.3046L32.2459 15.2959L32.1894 15.3074L32.254 15.6243ZM35.7525 17.1882L35.5933 17.4697L35.6068 17.4773L35.621 17.4836L35.7525 17.1882ZM36.2926 17.4613L36.1335 17.7428H36.1335L36.2926 17.4613ZM69.2466 36.0961L69.4083 35.816L69.4058 35.8145L69.2466 36.0961ZM69.2503 36.0982L69.0886 36.3783L69.0886 36.3783L69.2503 36.0982ZM76.9163 40.5242L77.1136 40.2679L77.0966 40.2548L77.0781 40.2441L76.9163 40.5242ZM78.3095 41.8448L78.5531 41.632L78.3095 41.8448ZM81.0558 48.4756H81.3792V48.4756L81.0558 48.4756ZM81.0558 50.1269H80.7324L80.7324 50.128L81.0558 50.1269ZM81.0559 50.1525H81.3793L81.3793 50.1514L81.0559 50.1525ZM76.5746 89.571L76.4129 89.8511H76.4129L76.5746 89.571ZM75.558 88.9841L75.2346 88.9841V89.1708L75.3963 89.2641L75.558 88.9841ZM75.5579 51.7018H75.2345H75.5579ZM75.4555 50.4948L75.7746 50.4425V50.4425L75.4555 50.4948ZM72.9196 45.1964L73.1663 44.9873L72.9196 45.1964ZM70.5165 43.1494L70.6757 42.8679L70.5165 43.1494ZM31.2512 20.9456H30.9278V21.1343L31.092 21.2271L31.2512 20.9456ZM31.2512 20.9093H31.5746V20.7207L31.4104 20.6278L31.2512 20.9093ZM30.2811 20.3607H29.9577V20.5494L30.1219 20.6422L30.2811 20.3607ZM34.1577 15.9148C33.615 15.6079 32.972 15.4069 32.3029 15.3046L32.2052 15.944C32.8141 16.0371 33.3787 16.2174 33.8393 16.4778L34.1577 15.9148ZM35.9117 16.9067L34.1577 15.9148L33.8393 16.4778L35.5933 17.4697L35.9117 16.9067ZM36.4518 17.1798C36.2608 17.0717 36.0714 16.9761 35.884 16.8927L35.621 17.4836C35.7885 17.5582 35.9595 17.6444 36.1335 17.7428L36.4518 17.1798ZM69.4058 35.8145L36.4518 17.1798L36.1335 17.7428L69.0874 36.3776L69.4058 35.8145ZM69.4121 35.8182L69.4083 35.816L69.0848 36.3761L69.0886 36.3783L69.4121 35.8182ZM69.0886 36.3783L76.7546 40.8043L77.0781 40.2441L69.412 35.8181L69.0886 36.3783ZM78.5531 41.632C78.1086 41.1232 77.6252 40.6617 77.1136 40.2679L76.7191 40.7805C77.1936 41.1458 77.6464 41.5773 78.0659 42.0575L78.5531 41.632ZM81.3792 48.4756C81.3792 46.1662 80.2225 43.5431 78.5531 41.632L78.0659 42.0575C79.6574 43.8793 80.7324 46.3569 80.7324 48.4756L81.3792 48.4756ZM81.3792 48.4756V48.4756C81.3792 48.4756 81.3792 48.4756 81.3792 48.4756V48.4756C81.3792 48.4756 81.3792 48.4756 81.3792 48.4756V48.4756V48.4756C81.3792 48.4756 81.3792 48.4756 81.3792 48.4756V48.4756C81.3792 48.4756 81.3792 48.4756 81.3792 48.4756C81.3792 48.4756 81.3792 48.4756 81.3792 48.4756C81.3792 48.4756 81.3792 48.4756 81.3792 48.4756C81.3792 48.4756 81.3792 48.4756 81.3792 48.4756H80.7324C80.7324 48.4756 80.7324 48.4756 80.7324 48.4756C80.7324 48.4756 80.7324 48.4756 80.7324 48.4756C80.7324 48.4756 80.7324 48.4756 80.7324 48.4756C80.7324 48.4756 80.7324 48.4756 80.7324 48.4756V48.4756C80.7324 48.4756 80.7324 48.4756 80.7324 48.4756V48.4756V48.4756C80.7324 48.4756 80.7324 48.4756 80.7324 48.4756V48.4756C80.7324 48.4756 80.7324 48.4756 80.7324 48.4756V48.4756H81.3792ZM80.7324 48.4756V50.1268H81.3792V48.4756H80.7324ZM80.7324 50.1268V50.1269H81.3792V50.1268H80.7324ZM81.3793 50.1514L81.3792 50.1258L80.7324 50.128L80.7325 50.1536L81.3793 50.1514ZM81.3793 50.1525V50.1525H80.7325V50.1525H81.3793ZM80.7325 50.1525V86.9838H81.3793V50.1525H80.7325ZM80.7325 86.9838C80.7325 88.3447 80.2573 89.2148 79.5817 89.6048C78.906 89.9949 77.9149 89.9714 76.7363 89.291L76.4129 89.8511C77.7093 90.5996 78.9588 90.7113 79.9051 90.165C80.8513 89.6187 81.3793 88.4807 81.3793 86.9838H80.7325ZM76.7364 89.291L75.7197 88.704L75.3963 89.2641L76.4129 89.8511L76.7364 89.291ZM75.2345 51.7018L75.2346 88.9841L75.8814 88.9841L75.8813 51.7018H75.2345ZM75.8813 51.7018V51.7018H75.2345V51.7018H75.8813ZM75.8813 51.7018C75.8813 51.289 75.8443 50.8672 75.7746 50.4425L75.1363 50.5472C75.2009 50.9407 75.2345 51.3274 75.2345 51.7018H75.8813ZM72.6728 45.4055C73.9254 46.8834 74.8447 48.7707 75.1363 50.5472L75.7746 50.4425C75.4618 48.5368 74.4853 46.5436 73.1663 44.9873L72.6728 45.4055ZM70.3573 43.4309C71.188 43.9006 71.9781 44.5858 72.6728 45.4055L73.1663 44.9873C72.4323 44.1214 71.5852 43.3822 70.6757 42.8679L70.3573 43.4309ZM31.092 21.2271L70.3573 43.4309L70.6757 42.8679L31.4104 20.6641L31.092 21.2271ZM31.5746 20.9456V20.9456H30.9278V20.9456H31.5746ZM31.5746 20.9456V20.9093H30.9278V20.9456H31.5746ZM31.5746 20.9093V20.9093H30.9278V20.9093H31.5746ZM31.4104 20.6278L30.4403 20.0792L30.1219 20.6422L31.092 21.1908L31.4104 20.6278ZM30.6045 20.3607V18.7738H29.9577V20.3607H30.6045ZM30.6045 18.7738C30.6045 17.0764 31.3355 16.1418 32.3187 15.9412L32.1894 15.3074C30.7916 15.5926 29.9577 16.9018 29.9577 18.7738H30.6045Z" fill="#754F9A" mask="url(#path-16-outside-4_190_1333)"/>
<path d="M47.745 23.706C47.745 26.7253 50.5685 30.803 54.0514 32.8138C57.5344 34.8247 60.3579 34.0073 60.3579 30.988L47.745 23.706Z" fill="#754F9A"/>
<path d="M62.7834 29.8508L60.3579 30.821L56.9621 28.8805L59.0642 27.7486L62.7834 29.8508Z" fill="#754F9A"/>
<path fill-rule="evenodd" clip-rule="evenodd" d="M65.2128 70.2496L65.6815 71.0606C65.7846 72.2782 66.5824 73.6592 67.5858 74.3559L68.0298 75.1242C67.6765 75.2881 67.2086 75.2419 66.6954 74.9456C65.5946 74.31 64.7022 72.7643 64.7022 71.4932C64.7022 70.9017 64.8953 70.474 65.2128 70.2496ZM65.1136 70.0779C64.7709 70.3171 64.5621 70.7763 64.5621 71.4123C64.5621 72.7728 65.5172 74.4271 66.6954 75.1073C67.3236 75.4699 67.8883 75.4825 68.2787 75.209L69.2716 74.6769L69.2669 74.6682C69.6793 74.4572 69.9368 73.9689 69.9368 73.2626C69.9368 71.9022 68.9817 70.2479 67.8035 69.5676C67.1909 69.2139 66.6386 69.1932 66.2495 69.4461L65.2742 69.9863C65.2255 70.0085 65.1787 70.0344 65.1341 70.0639L65.1125 70.0759L65.1136 70.0779Z" fill="url(#paint0_linear_190_1333)"/>
<path d="M64.6245 71.4483C64.6245 70.1276 65.5517 69.5923 66.6954 70.2526C67.8392 70.913 68.7664 72.519 68.7664 73.8397C68.7664 75.1604 67.8392 75.6957 66.6954 75.0354C65.5517 74.375 64.6245 72.769 64.6245 71.4483Z" fill="#F2F2F2"/>
<mask id="path-22-inside-5_190_1333" fill="white">
<path fill-rule="evenodd" clip-rule="evenodd" d="M42.1787 5.86022L44.6011 10.052C45.0769 15.6708 48.7588 22.0434 53.3888 25.2586L55.6976 29.2538C54.0005 30.0482 51.7496 29.8293 49.2801 28.4035C43.9976 25.3536 39.7153 17.9365 39.7153 11.8368C39.7153 8.99078 40.6476 6.93443 42.1787 5.86022ZM41.9803 5.51685C40.3986 6.62066 39.4352 8.73985 39.4352 11.6751C39.4352 17.9534 43.8429 25.5877 49.2801 28.7269C52.1804 30.4014 54.7878 30.4586 56.5895 29.1945L61.1689 26.7401L61.147 26.7002C63.0505 25.7264 64.2387 23.4732 64.2387 20.2135C64.2387 13.9352 59.831 6.30082 54.3938 3.16167C51.5667 1.52945 49.018 1.43391 47.2224 2.60088L42.7167 5.09656C42.4949 5.19771 42.2822 5.31553 42.0793 5.4496L41.9748 5.50746L41.9803 5.51685Z"/>
</mask>
<path fill-rule="evenodd" clip-rule="evenodd" d="M42.1787 5.86022L44.6011 10.052C45.0769 15.6708 48.7588 22.0434 53.3888 25.2586L55.6976 29.2538C54.0005 30.0482 51.7496 29.8293 49.2801 28.4035C43.9976 25.3536 39.7153 17.9365 39.7153 11.8368C39.7153 8.99078 40.6476 6.93443 42.1787 5.86022ZM41.9803 5.51685C40.3986 6.62066 39.4352 8.73985 39.4352 11.6751C39.4352 17.9534 43.8429 25.5877 49.2801 28.7269C52.1804 30.4014 54.7878 30.4586 56.5895 29.1945L61.1689 26.7401L61.147 26.7002C63.0505 25.7264 64.2387 23.4732 64.2387 20.2135C64.2387 13.9352 59.831 6.30082 54.3938 3.16167C51.5667 1.52945 49.018 1.43391 47.2224 2.60088L42.7167 5.09656C42.4949 5.19771 42.2822 5.31553 42.0793 5.4496L41.9748 5.50746L41.9803 5.51685Z" fill="#FF855E"/>
<path d="M44.6011 10.052L44.9233 10.0247L44.9172 9.9527L44.8811 9.89016L44.6011 10.052ZM42.1787 5.86022L42.4587 5.69841L42.282 5.39267L41.993 5.59547L42.1787 5.86022ZM53.3888 25.2586L53.6688 25.0968L53.6327 25.0342L53.5733 24.993L53.3888 25.2586ZM55.6976 29.2538L55.8347 29.5467L56.154 29.3972L55.9776 29.0919L55.6976 29.2538ZM49.2801 28.4035L49.1184 28.6835L49.2801 28.4035ZM39.7153 11.8368H39.3919H39.7153ZM41.9803 5.51685L42.1653 5.78206L42.4088 5.61213L42.2603 5.35504L41.9803 5.51685ZM39.4352 11.6751H39.1118H39.4352ZM49.2801 28.7269L49.4418 28.4468V28.4468L49.2801 28.7269ZM56.5895 29.1945L56.4367 28.9094L56.4196 28.9186L56.4037 28.9297L56.5895 29.1945ZM61.1689 26.7401L61.3217 27.0252L61.6097 26.8708L61.4523 26.5844L61.1689 26.7401ZM61.147 26.7002L60.9997 26.4123L60.7031 26.564L60.8635 26.856L61.147 26.7002ZM64.2387 20.2135H63.9153H64.2387ZM54.3938 3.16167L54.5555 2.88159L54.3938 3.16167ZM47.2224 2.60088L47.3791 2.88379L47.3891 2.87826L47.3987 2.87205L47.2224 2.60088ZM42.7167 5.09656L42.8509 5.3908L42.8624 5.38557L42.8734 5.37947L42.7167 5.09656ZM42.0793 5.4496L42.236 5.73251L42.247 5.72639L42.2576 5.71944L42.0793 5.4496ZM41.9748 5.50746L41.8181 5.22455L41.53 5.38413L41.6948 5.66928L41.9748 5.50746ZM44.8811 9.89016L42.4587 5.69841L41.8987 6.02204L44.321 10.2138L44.8811 9.89016ZM53.5733 24.993C49.0224 21.8327 45.391 15.5476 44.9233 10.0247L44.2788 10.0793C44.7627 15.7941 48.4951 22.254 53.2043 25.5243L53.5733 24.993ZM55.9776 29.0919L53.6688 25.0968L53.1088 25.4204L55.4175 29.4156L55.9776 29.0919ZM49.1184 28.6835C51.6433 30.1413 54.0095 30.401 55.8347 29.5467L55.5604 28.9609C53.9916 29.6953 51.8559 29.5172 49.4418 28.1234L49.1184 28.6835ZM39.3919 11.8368C39.3919 14.9568 40.4849 18.3914 42.2367 21.4255C43.9884 24.4596 46.4164 27.1236 49.1184 28.6835L49.4418 28.1234C46.8613 26.6335 44.5068 24.064 42.7968 21.1021C41.0868 18.1403 40.0387 14.8165 40.0387 11.8368H39.3919ZM41.993 5.59547C40.3463 6.75071 39.3919 8.92696 39.3919 11.8368H40.0387C40.0387 9.0546 40.9488 7.11815 42.3644 6.12497L41.993 5.59547ZM41.7952 5.25165C40.0975 6.43644 39.1118 8.67591 39.1118 11.6751H39.7586C39.7586 8.80378 40.6998 6.80488 42.1653 5.78206L41.7952 5.25165ZM39.1118 11.6751C39.1118 14.8844 40.2362 18.418 42.0386 21.5399C43.8411 24.6618 46.339 27.4023 49.1184 29.007L49.4418 28.4468C46.7839 26.9123 44.3595 24.2661 42.5988 21.2165C40.8381 18.1668 39.7586 14.7441 39.7586 11.6751H39.1118ZM49.1184 29.007C52.0815 30.7177 54.8331 30.8218 56.7752 29.4592L56.4037 28.9297C54.7424 30.0953 52.2793 30.085 49.4418 28.4468L49.1184 29.007ZM61.0161 26.4551L56.4367 28.9094L56.7422 29.4795L61.3217 27.0252L61.0161 26.4551ZM60.8635 26.856L60.8855 26.8959L61.4523 26.5844L61.4304 26.5445L60.8635 26.856ZM63.9153 20.2135C63.9153 23.4026 62.7563 25.5137 60.9997 26.4123L61.2943 26.9882C63.3447 25.9392 64.5621 23.5437 64.5621 20.2135H63.9153ZM54.2321 3.44175C56.89 4.97626 59.3144 7.62245 61.0751 10.6721C62.8358 13.7217 63.9153 17.1444 63.9153 20.2135H64.5621C64.5621 17.0042 63.4377 13.4706 61.6353 10.3487C59.8329 7.22678 57.3349 4.48623 54.5555 2.88159L54.2321 3.44175ZM47.3987 2.87205C49.0555 1.7952 51.4662 1.84486 54.2321 3.44175L54.5555 2.88159C51.6672 1.21403 48.9804 1.07261 47.0462 2.32971L47.3987 2.87205ZM42.8734 5.37947L47.3791 2.88379L47.0657 2.31797L42.56 4.81365L42.8734 5.37947ZM42.5825 4.80232C42.3454 4.91044 42.118 5.03641 41.901 5.17976L42.2576 5.71944C42.4465 5.59465 42.6444 5.48499 42.8509 5.3908L42.5825 4.80232ZM42.1315 5.79037L42.236 5.73251L41.9226 5.16669L41.8181 5.22455L42.1315 5.79037ZM42.2603 5.35504L42.2548 5.34564L41.6948 5.66928L41.7002 5.67867L42.2603 5.35504Z" fill="#754F9A" mask="url(#path-22-inside-5_190_1333)"/>
<path d="M39.7268 11.8434C39.7268 5.75106 44.0039 3.28165 49.28 6.32782C54.5562 9.37399 58.8333 16.7822 58.8333 22.8746C58.8333 28.9669 54.5562 31.4363 49.28 28.3901C44.0039 25.344 39.7268 17.9357 39.7268 11.8434Z" fill="white" stroke="#754F9A" stroke-width="0.323406"/>
<path d="M52.3569 19.6772L48.5447 10.1716V9.71607L48.2534 10.1061L44.4711 15.171L44.1995 15.1568L44.3449 15.34L44.2384 15.4826L44.4677 15.4947L48.2212 20.2249L48.2212 20.3482L48.3115 20.3387L48.5446 20.6325L48.5446 20.3141L52.2345 19.9252L52.5515 19.8918L52.3569 19.6772ZM44.6756 16.0765L44.4017 16.2438L48.2212 24.6656V25.0346L48.4999 24.7422L52.3368 20.7172L52.64 20.3991L52.2029 20.4448L48.4544 20.8368L44.6756 16.0765Z" fill="#78C2FF" stroke="#754F9A" stroke-width="0.323406"/>
<path d="M48.3829 10.203L44.549 15.3371L48.3829 15.5382L48.3829 10.203Z" fill="#71D4FE"/>
<path d="M48.3829 15.5381L44.549 15.3371L48.3829 20.1685L48.3829 15.5381Z" fill="#78C2FF"/>
<path d="M52.2176 19.7644L48.383 10.2029L48.383 15.538L52.2176 19.7644Z" fill="#78C2FF"/>
<path d="M48.383 20.1686L52.2176 19.7646L48.383 15.5382L48.383 20.1686Z" fill="#8194FF"/>
<path d="M44.549 16.177L48.3829 24.6305L48.3829 21.0068L44.549 16.177Z" fill="#71D4FE"/>
<path d="M48.383 21.0069L48.383 24.6306L52.2198 20.6057L48.383 21.0069Z" fill="#78C2FF"/>
<rect x="-0.140039" y="-0.242555" width="64.1812" height="49.4865" rx="5.3362" transform="matrix(0.866025 0.5 -2.20305e-08 1 17.9729 15.8313)" fill="#78C2FF" stroke="#754F9A" stroke-width="0.323406"/>
<rect x="-0.140039" y="-0.242555" width="59.0859" height="43.6221" rx="4.91256" transform="matrix(0.866025 0.5 -2.20305e-08 1 20.1063 20.4952)" fill="#78C2FF" stroke="#754F9A" stroke-width="0.323406" stroke-linecap="round" stroke-dasharray="2.59 2.59"/>
<rect width="37.242" height="30.2942" transform="matrix(0.866025 0.5 -2.20305e-08 1 28.0172 32.1146)" fill="#78C2FF"/>
<g clip-path="url(#clip0_190_1333)">
<rect x="0.140039" y="0.242555" width="9.64535" height="9.64535" rx="4.82267" transform="matrix(0.866025 0.5 -2.20305e-08 1 39.8456 38.8629)" fill="#754F9A" stroke="#754F9A" stroke-width="0.323406"/>
<rect x="0.140039" y="0.242555" width="9.19305" height="9.64535" rx="4.59653" transform="matrix(0.866025 0.5 -2.20305e-08 1 39.8456 38.8629)" fill="#FF855E" stroke="#754F9A" stroke-width="0.323406"/>
<rect x="-0.0700195" y="-0.121277" width="4.26952" height="1.39405" rx="0.697023" transform="matrix(0.866025 0.5 -2.20305e-08 1 42.2377 47.3496)" fill="#FFE15F" stroke="#754F9A" stroke-width="0.161703"/>
<path d="M42.7214 48.2046L45.3895 49.745" stroke="#754F9A" stroke-width="0.161703" stroke-linecap="round" stroke-linejoin="round"/>
<rect x="-0.0700195" y="-0.121277" width="2.87507" height="2.87507" rx="1.43754" transform="matrix(0.866025 0.5 -2.20305e-08 1 40.944 42.8219)" fill="white" stroke="#754F9A" stroke-width="0.161703"/>
<rect x="0.140039" y="0.242555" width="1.36793" height="1.36793" rx="0.683966" transform="matrix(0.866025 0.5 -2.20305e-08 1 41.4147 43.4835)" fill="#78C2FF" stroke="#78C2FF" stroke-width="0.323406"/>
<rect x="-0.0700195" y="-0.121277" width="2.87507" height="2.87507" rx="1.43754" transform="matrix(0.866025 0.5 -2.20305e-08 1 44.5015 44.7624)" fill="white" stroke="#754F9A" stroke-width="0.161703"/>
<rect x="0.140039" y="0.242555" width="1.36793" height="1.36793" rx="0.683966" transform="matrix(0.866025 0.5 -2.20305e-08 1 44.9721 45.4239)" fill="#78C2FF" stroke="#78C2FF" stroke-width="0.323406"/>
</g>
<path d="M37.4193 52.8052L36.8627 52.4838L37.7109 50.1364L38.3803 50.5229L39.2273 53.8491L38.6706 53.5277L38.0552 50.9836L38.036 50.9725L37.4193 52.8052ZM37.3845 51.67L38.6994 52.4291L38.6994 52.8974L37.3845 52.1382L37.3845 51.67ZM39.99 54.331C39.8012 54.222 39.6389 54.0821 39.5029 53.9112C39.3677 53.7399 39.2638 53.5506 39.191 53.3432C39.119 53.1364 39.083 52.9253 39.083 52.7102C39.083 52.4922 39.1194 52.322 39.1922 52.1997C39.2658 52.0768 39.3701 52.0083 39.5053 51.9939C39.6405 51.9787 39.8012 52.0249 39.9876 52.1325C40.1483 52.2253 40.2891 52.3403 40.4099 52.4774C40.5307 52.6146 40.6262 52.7644 40.6966 52.927C40.767 53.0895 40.8058 53.255 40.813 53.4236L40.3307 53.1451C40.3171 53.0311 40.2811 52.9249 40.2227 52.8265C40.1651 52.7277 40.0896 52.6513 39.996 52.5972C39.9168 52.5515 39.8476 52.5365 39.7884 52.5522C39.73 52.5675 39.6845 52.6127 39.6517 52.688C39.6189 52.7633 39.6025 52.8678 39.6025 53.0018C39.6025 53.1375 39.6185 53.2622 39.6505 53.3758C39.6833 53.4898 39.7292 53.5889 39.7884 53.6729C39.8476 53.757 39.9168 53.8219 39.996 53.8676C40.0544 53.9013 40.1068 53.9177 40.1531 53.9168C40.2003 53.9163 40.2391 53.8985 40.2695 53.8634C40.3007 53.8279 40.3211 53.7755 40.3307 53.7062L40.813 53.9846C40.805 54.1426 40.7666 54.2635 40.6978 54.3476C40.6298 54.4312 40.5359 54.473 40.4159 54.473C40.2959 54.473 40.1539 54.4256 39.99 54.331ZM41.7025 55.3197C41.5138 55.2107 41.3514 55.0708 41.2155 54.9C41.0803 54.7286 40.9763 54.5393 40.9035 54.332C40.8315 54.1251 40.7956 53.9141 40.7956 53.6989C40.7956 53.4809 40.8319 53.3108 40.9047 53.1884C40.9783 53.0656 41.0827 52.997 41.2179 52.9827C41.353 52.9675 41.5138 53.0136 41.7001 53.1212C41.8609 53.214 42.0017 53.329 42.1224 53.4662C42.2432 53.6033 42.3388 53.7532 42.4092 53.9157C42.4796 54.0782 42.5183 54.2438 42.5255 54.4123L42.0433 54.1339C42.0297 54.0198 41.9937 53.9136 41.9353 53.8153C41.8777 53.7164 41.8021 53.64 41.7085 53.586C41.6294 53.5403 41.5602 53.5253 41.501 53.541C41.4426 53.5562 41.397 53.6015 41.3642 53.6767C41.3314 53.752 41.315 53.8566 41.315 53.9905C41.315 54.1263 41.331 54.2509 41.363 54.3645C41.3958 54.4786 41.4418 54.5776 41.501 54.6617C41.5602 54.7457 41.6294 54.8106 41.7085 54.8563C41.7669 54.89 41.8193 54.9064 41.8657 54.9055C41.9129 54.905 41.9517 54.8873 41.9821 54.8522C42.0133 54.8166 42.0337 54.7642 42.0433 54.6949L42.5255 54.9734C42.5175 55.1313 42.4792 55.2523 42.4104 55.3363C42.3424 55.4199 42.2484 55.4617 42.1284 55.4617C42.0085 55.4617 41.8665 55.4144 41.7025 55.3197ZM43.4151 56.3085C43.2287 56.2009 43.0676 56.0621 42.9316 55.8922C42.7964 55.7218 42.6921 55.5331 42.6185 55.3263C42.5449 55.1185 42.5081 54.9056 42.5081 54.6876C42.5081 54.4678 42.5449 54.297 42.6185 54.1751C42.6921 54.0522 42.7964 53.9841 42.9316 53.9707C43.0676 53.9569 43.2287 54.0038 43.4151 54.1114C43.6015 54.2189 43.7622 54.3579 43.8974 54.5283C44.0333 54.6983 44.1381 54.8871 44.2117 55.0949C44.2853 55.3018 44.3221 55.5151 44.3221 55.7349C44.3221 55.9529 44.2853 56.1233 44.2117 56.2461C44.1381 56.368 44.0333 56.4359 43.8974 56.4498C43.7622 56.4631 43.6015 56.416 43.4151 56.3085ZM43.4175 55.8527C43.5023 55.9016 43.5731 55.9148 43.6298 55.8922C43.6866 55.8686 43.7294 55.8167 43.7582 55.7363C43.7878 55.6564 43.8026 55.5546 43.8026 55.4309C43.8026 55.3071 43.7878 55.1882 43.7582 55.0741C43.7294 54.9605 43.6866 54.8592 43.6298 54.7701C43.5731 54.6809 43.5023 54.6119 43.4175 54.563C43.3319 54.5136 43.2599 54.5002 43.2015 54.5228C43.144 54.5459 43.1004 54.5974 43.0708 54.6772C43.042 54.7576 43.0276 54.8596 43.0276 54.9834C43.0276 55.1072 43.042 55.2258 43.0708 55.3394C43.1004 55.4535 43.144 55.5553 43.2015 55.6449C43.2599 55.734 43.3319 55.8033 43.4175 55.8527ZM45.5658 56.6026L45.5658 55.3808L46.0769 55.6759L46.0769 57.8037L45.5862 57.5204L45.5862 57.1339L45.567 57.1228C45.5255 57.2235 45.4563 57.2837 45.3595 57.3036C45.2635 57.3239 45.1463 57.2941 45.008 57.2143C44.8848 57.1431 44.7764 57.0482 44.6829 56.9296C44.5893 56.8109 44.5161 56.6768 44.4633 56.5271C44.4113 56.378 44.3849 56.2201 44.3841 56.0534L44.3841 54.6985L44.8952 54.9936L44.8952 56.2431C44.896 56.3692 44.9252 56.4853 44.9828 56.5916C45.0404 56.6978 45.1176 56.7788 45.2143 56.8347C45.2759 56.8702 45.3335 56.8873 45.3871 56.8859C45.4407 56.8836 45.4839 56.8596 45.5167 56.8139C45.5503 56.7686 45.5666 56.6982 45.5658 56.6026ZM46.7265 56.9486L46.7265 58.1788L46.2155 57.8837L46.2155 55.7558L46.7025 56.0371L46.7025 56.4125L46.7241 56.4249C46.7649 56.3247 46.8333 56.2663 46.9293 56.2497C47.0253 56.2322 47.1416 56.2629 47.2784 56.3418C47.4064 56.4157 47.5179 56.5125 47.6131 56.6321C47.7083 56.7517 47.7823 56.8867 47.8351 57.0373C47.8879 57.1869 47.9142 57.3443 47.9142 57.5096L47.9142 58.8645L47.4032 58.5694L47.4032 57.3199C47.404 57.1901 47.3752 57.0719 47.3168 56.9652C47.2584 56.8576 47.178 56.7743 47.0757 56.7152C47.0069 56.6755 46.9461 56.6575 46.8933 56.6611C46.8413 56.6653 46.8005 56.6916 46.7709 56.7401C46.7421 56.7881 46.7273 56.8576 46.7265 56.9486ZM49.0269 57.3791L49.0269 57.8224L47.9172 57.1817L47.9172 56.7384L49.0269 57.3791ZM48.1692 56.374L48.6802 56.6691L48.6802 58.6529C48.6802 58.7073 48.6874 58.754 48.7018 58.7928C48.7162 58.8306 48.7362 58.863 48.7618 58.8897C48.7882 58.917 48.8186 58.9405 48.853 58.9604C48.877 58.9742 48.901 58.9858 48.925 58.995C48.949 59.0033 48.9674 59.0098 48.9802 59.0144L49.0605 59.5C49.0349 59.4944 48.999 59.4843 48.9526 59.4695C48.9062 59.4556 48.8498 59.4309 48.7834 59.3954C48.6602 59.3298 48.5523 59.2485 48.4595 59.1516C48.3675 59.0551 48.2959 58.9463 48.2447 58.8253C48.1935 58.7043 48.1684 58.5744 48.1692 58.4354L48.1692 56.374ZM50.6654 57.6157L50.6654 60.4528L50.1459 60.1529L50.1459 57.8852L50.1315 57.8769L49.5688 57.9593L49.5688 57.4273L50.1771 57.3338L50.6654 57.6157Z" fill="#F8B7D7"/>
<path d="M37.4193 52.8052L37.4193 53.1286L37.6227 53.2461L37.6857 53.0591L37.4193 52.8052ZM36.8627 52.4838L36.5979 52.2255L36.4697 52.5804L36.8627 52.8073L36.8627 52.4838ZM37.7109 50.1364L37.7109 49.813L37.5113 49.6978L37.4461 49.8781L37.7109 50.1364ZM38.3803 50.5229L38.6451 50.5704L38.58 50.3148L38.3803 50.1995L38.3803 50.5229ZM39.2273 53.8491L39.2273 54.1725L39.6201 54.3993L39.4921 53.8965L39.2273 53.8491ZM38.6706 53.5277L38.4042 53.4738L38.4671 53.7336L38.6706 53.8511L38.6706 53.5277ZM38.0552 50.9836L38.3216 51.0375L38.2587 50.7777L38.0552 50.6601L38.0552 50.9836ZM38.036 50.9725L38.036 50.6491L37.8326 50.5316L37.7696 50.7187L38.036 50.9725ZM37.3845 51.67L37.3845 51.3466L37.1045 51.1849L37.1045 51.5083L37.3845 51.67ZM38.6994 52.4291L38.9795 52.5908L38.9795 52.2674L38.6994 52.1057L38.6994 52.4291ZM38.6994 52.8974L38.6994 53.2208L38.9795 53.3825L38.9795 53.0591L38.6994 52.8974ZM37.3845 52.1382L37.1045 51.9765L37.1045 52.2999L37.3845 52.4616L37.3845 52.1382ZM37.4193 52.4818L36.8627 52.1604L36.8627 52.8073L37.4193 53.1286L37.4193 52.4818ZM37.1274 52.7422L37.9756 50.3948L37.4461 49.8781L36.5979 52.2255L37.1274 52.7422ZM37.7109 50.4598L38.3803 50.8463L38.3803 50.1995L37.7109 49.813L37.7109 50.4598ZM38.1155 50.4755L38.9625 53.8016L39.4921 53.8965L38.6451 50.5704L38.1155 50.4755ZM39.2273 53.5257L38.6706 53.2043L38.6706 53.8511L39.2273 54.1725L39.2273 53.5257ZM38.937 53.5816L38.3216 51.0375L37.7888 50.9296L38.4042 53.4738L38.937 53.5816ZM38.0552 50.6601L38.036 50.6491L38.036 51.2959L38.0552 51.307L38.0552 50.6601ZM37.7696 50.7187L37.153 52.5514L37.6857 53.0591L38.3023 51.2263L37.7696 50.7187ZM37.3845 51.9934L38.6994 52.7525L38.6994 52.1057L37.3845 51.3466L37.3845 51.9934ZM38.4194 52.2674L38.4194 52.7357L38.9795 53.0591L38.9795 52.5908L38.4194 52.2674ZM38.6994 52.574L37.3845 51.8148L37.3845 52.4616L38.6994 53.2208L38.6994 52.574ZM37.6646 52.2999L37.6646 51.8317L37.1045 51.5083L37.1045 51.9765L37.6646 52.2999ZM39.5029 53.9112L39.3592 54.1059L39.3609 54.108L39.5029 53.9112ZM39.191 53.3432L38.9407 53.344L38.9413 53.3457L39.191 53.3432ZM39.1922 52.1997L38.9431 51.908L38.9428 51.9085L39.1922 52.1997ZM39.5053 51.9939L39.6479 52.3546L39.649 52.3545L39.5053 51.9939ZM40.4099 52.4774L40.5318 52.2566V52.2566L40.4099 52.4774ZM40.813 53.4236L40.813 53.747L41.1076 53.9171L41.0927 53.5688L40.813 53.4236ZM40.3307 53.1451L40.0536 53.0325L40.089 53.329L40.3307 53.4685L40.3307 53.1451ZM40.2227 52.8265L40.0261 52.9433L40.0289 52.948L40.2227 52.8265ZM39.7884 52.5522L39.953 52.9089L39.9535 52.9088L39.7884 52.5522ZM39.6505 53.3758L39.3894 53.3421L39.3902 53.3452L39.6505 53.3758ZM39.7884 53.6729L39.9535 53.507L39.7884 53.6729ZM40.1531 53.9168L40.0262 53.5552L40.0245 53.5552L40.1531 53.9168ZM40.2695 53.8634L40.0371 53.5488L40.0365 53.5495L40.2695 53.8634ZM40.3307 53.7062L40.3307 53.3828L40.0891 53.2433L40.0537 53.4988L40.3307 53.7062ZM40.813 53.9846L41.0926 54.1644L41.1094 53.8324L40.813 53.6612L40.813 53.9846ZM40.6978 54.3476L40.4621 54.0368L40.4618 54.0372L40.6978 54.3476ZM40.4159 54.473L40.2906 54.1114L40.4159 54.473ZM39.99 54.0076C39.8413 53.9217 39.7301 53.8215 39.6449 53.7144L39.3609 54.108C39.5477 54.3427 39.7611 54.5222 39.99 54.6544L39.99 54.0076ZM39.6466 53.7166C39.5577 53.6039 39.49 53.4814 39.4406 53.3408L38.9413 53.3457C39.0375 53.6197 39.1778 53.8759 39.3592 54.1059L39.6466 53.7166ZM39.4412 53.3424C39.3918 53.2005 39.3631 53.0448 39.3631 52.8719L38.8029 52.5484C38.8029 52.8059 38.8462 53.0722 38.9407 53.344L39.4412 53.3424ZM39.3631 52.8719C39.3631 52.6959 39.3923 52.5737 39.4416 52.4909L38.9428 51.9085C38.8465 52.0704 38.8029 52.2885 38.8029 52.5484L39.3631 52.8719ZM39.4413 52.4913C39.4914 52.4077 39.5594 52.364 39.6479 52.3546L39.3627 51.6333C39.1809 51.6525 39.0402 51.746 38.9431 51.908L39.4413 52.4913ZM39.649 52.3545C39.7333 52.345 39.8425 52.3721 39.9876 52.4559L39.9876 51.8091C39.76 51.6777 39.5476 51.6124 39.3616 51.6334L39.649 52.3545ZM39.9876 52.4559C40.1144 52.5291 40.212 52.612 40.288 52.6982L40.5318 52.2566C40.3662 52.0686 40.1823 51.9215 39.9876 51.8091L39.9876 52.4559ZM40.288 52.6982C40.3664 52.7873 40.4225 52.877 40.4636 52.9718L40.9297 52.8821C40.8299 52.6518 40.6949 52.4419 40.5318 52.2566L40.288 52.6982ZM40.4636 52.9718C40.5026 53.062 40.5283 53.162 40.5333 53.2784L41.0927 53.5688C41.0833 53.3481 41.0314 53.117 40.9297 52.8821L40.4636 52.9718ZM40.813 53.1002L40.3307 52.8217L40.3307 53.4685L40.813 53.747L40.813 53.1002ZM40.6078 53.2578C40.5865 53.0794 40.5264 52.8899 40.4166 52.705L40.0289 52.948C40.0359 52.9598 40.0477 52.9827 40.0536 53.0325L40.6078 53.2578ZM40.4194 52.7098C40.3011 52.5068 40.1507 52.3632 39.996 52.2738L39.996 52.9207C40.0144 52.9313 40.0226 52.9392 40.0244 52.941C40.0253 52.9419 40.0255 52.9422 40.0252 52.9419C40.025 52.9416 40.0253 52.9419 40.0261 52.9433L40.4194 52.7098ZM39.996 52.2738C39.8625 52.1968 39.7344 52.1662 39.6233 52.1957L39.9535 52.9088C39.9608 52.9068 39.9711 52.9063 39.996 52.9207L39.996 52.2738ZM39.6239 52.1955C39.5144 52.2241 39.4399 52.3069 39.3918 52.4173L39.9115 52.9586C39.929 52.9186 39.9457 52.9108 39.953 52.9089L39.6239 52.1955ZM39.3918 52.4173C39.3421 52.5313 39.3224 52.6773 39.3224 52.8401L39.8826 53.1635C39.8826 53.0584 39.8956 52.9952 39.9115 52.9586L39.3918 52.4173ZM39.3224 52.8401C39.3224 53.0034 39.3414 53.1719 39.3894 53.3421L39.9115 53.4095C39.8955 53.3525 39.8826 53.2717 39.8826 53.1635L39.3224 52.8401ZM39.3902 53.3452C39.4384 53.5127 39.5133 53.6827 39.6233 53.8389L39.9535 53.507C39.9452 53.4951 39.9281 53.467 39.9107 53.4064L39.3902 53.3452ZM39.6233 53.8389C39.7344 53.9966 39.8625 54.1139 39.996 54.191L39.996 53.5442C39.9711 53.5298 39.9608 53.5174 39.9535 53.507L39.6233 53.8389ZM39.996 54.191C40.0938 54.2475 40.1912 54.2801 40.2818 54.2783L40.0245 53.5552C40.0224 53.5553 40.0149 53.5551 39.996 53.5442L39.996 54.191ZM40.2801 54.2783C40.3717 54.2774 40.4465 54.2421 40.5026 54.1774L40.0365 53.5495C40.0318 53.5549 40.029 53.5552 40.0262 53.5552L40.2801 54.2783ZM40.5019 54.1781C40.5601 54.1118 40.5931 54.0194 40.6078 53.9135L40.0537 53.4988C40.0491 53.5315 40.0414 53.5439 40.0371 53.5488L40.5019 54.1781ZM40.3307 54.0296L40.813 54.308L40.813 53.6612L40.3307 53.3828L40.3307 54.0296ZM40.5334 53.8048C40.5278 53.9147 40.5021 53.9879 40.4621 54.0368L40.9335 54.6584C41.0311 54.5392 41.0822 54.3705 41.0926 54.1644L40.5334 53.8048ZM40.4618 54.0372C40.4228 54.0852 40.3683 54.1114 40.2906 54.1114L40.5411 54.8345C40.7034 54.8345 40.8369 54.7772 40.9338 54.658L40.4618 54.0372ZM40.2906 54.1114C40.2172 54.1114 40.12 54.0826 39.99 54.0076L39.99 54.6544C40.1879 54.7686 40.3746 54.8345 40.5411 54.8345L40.2906 54.1114ZM41.2155 54.9L41.0718 55.0946L41.0735 55.0967L41.2155 54.9ZM40.9035 54.332L40.6533 54.3328L40.6539 54.3344L40.9035 54.332ZM40.9047 53.1884L40.6556 52.8968L40.6554 52.8972L40.9047 53.1884ZM41.2179 52.9827L41.3605 53.3434L41.3615 53.3433L41.2179 52.9827ZM42.1224 53.4662L42.2443 53.2454L42.2443 53.2454L42.1224 53.4662ZM42.5255 54.4123L42.5255 54.7357L42.8201 54.9058L42.8053 54.5575L42.5255 54.4123ZM42.0433 54.1339L41.7662 54.0212L41.8015 54.3177L42.0433 54.4573L42.0433 54.1339ZM41.9353 53.8153L41.7386 53.932L41.7414 53.9368L41.9353 53.8153ZM41.501 53.541L41.6655 53.8977L41.6661 53.8975L41.501 53.541ZM41.363 54.3645L41.1019 54.3309L41.1028 54.3339L41.363 54.3645ZM41.501 54.6617L41.6661 54.4958L41.501 54.6617ZM41.8657 54.9055L41.7388 54.5439L41.737 54.544L41.8657 54.9055ZM41.9821 54.8522L41.7497 54.5375L41.749 54.5382L41.9821 54.8522ZM42.0433 54.6949L42.0433 54.3715L41.8016 54.232L41.7662 54.4876L42.0433 54.6949ZM42.5255 54.9734L42.8052 55.1532L42.822 54.8211L42.5255 54.65L42.5255 54.9734ZM42.4104 55.3363L42.1747 55.0256L42.1744 55.0259L42.4104 55.3363ZM42.1284 55.4617L42.0032 55.1001L42.1284 55.4617ZM41.7025 54.9963C41.5539 54.9105 41.4426 54.8102 41.3575 54.7032L41.0735 55.0967C41.2602 55.3314 41.4737 55.511 41.7025 55.6431L41.7025 54.9963ZM41.3591 54.7053C41.2702 54.5926 41.2026 54.4702 41.1532 54.3296L40.6539 54.3344C40.7501 54.6085 40.8903 54.8647 41.0718 55.0946L41.3591 54.7053ZM41.1538 54.3312C41.1044 54.1892 41.0756 54.0336 41.0756 53.8606L40.5155 53.5372C40.5155 53.7946 40.5587 54.061 40.6533 54.3328L41.1538 54.3312ZM41.0756 53.8606C41.0756 53.6846 41.1048 53.5624 41.1541 53.4796L40.6554 52.8972C40.5591 53.0591 40.5155 53.2773 40.5155 53.5372L41.0756 53.8606ZM41.1538 53.4801C41.2039 53.3965 41.2719 53.3527 41.3605 53.3434L41.0752 52.622C40.8934 52.6413 40.7527 52.7347 40.6556 52.8968L41.1538 53.4801ZM41.3615 53.3433C41.4459 53.3337 41.555 53.3608 41.7001 53.4446L41.7001 52.7978C41.4725 52.6664 41.2602 52.6012 41.0742 52.6221L41.3615 53.3433ZM41.7001 53.4446C41.827 53.5178 41.9246 53.6007 42.0005 53.6869L42.2443 53.2454C42.0788 53.0573 41.8948 52.9102 41.7001 52.7978L41.7001 53.4446ZM42.0005 53.6869C42.079 53.776 42.1351 53.8658 42.1761 53.9605L42.6422 53.8708C42.5425 53.6405 42.4075 53.4306 42.2443 53.2454L42.0005 53.6869ZM42.1761 53.9605C42.2152 54.0507 42.2409 54.1508 42.2458 54.2672L42.8053 54.5575C42.7958 54.3368 42.7439 54.1058 42.6422 53.8708L42.1761 53.9605ZM42.5255 54.0889L42.0433 53.8105L42.0433 54.4573L42.5255 54.7357L42.5255 54.0889ZM42.3203 54.2466C42.2991 54.0682 42.2389 53.8787 42.1291 53.6938L41.7414 53.9368C41.7484 53.9485 41.7603 53.9715 41.7662 54.0212L42.3203 54.2466ZM42.1319 53.6985C42.0137 53.4956 41.8632 53.3519 41.7085 53.2626L41.7085 53.9094C41.727 53.92 41.7352 53.928 41.7369 53.9297C41.7379 53.9307 41.738 53.9309 41.7378 53.9307C41.7376 53.9304 41.7378 53.9306 41.7386 53.932L42.1319 53.6985ZM41.7085 53.2626C41.5751 53.1855 41.447 53.1549 41.3359 53.1844L41.6661 53.8975C41.6734 53.8956 41.6836 53.895 41.7085 53.9094L41.7085 53.2626ZM41.3364 53.1843C41.2269 53.2128 41.1525 53.2956 41.1044 53.4061L41.6241 53.9474C41.6415 53.9073 41.6583 53.8996 41.6655 53.8977L41.3364 53.1843ZM41.1044 53.4061C41.0547 53.5201 41.035 53.666 41.035 53.8288L41.5951 54.1522C41.5951 54.0471 41.6082 53.9839 41.6241 53.9474L41.1044 53.4061ZM41.035 53.8288C41.035 53.9921 41.054 54.1607 41.1019 54.3309L41.6241 54.3982C41.6081 54.3412 41.5951 54.2604 41.5951 54.1522L41.035 53.8288ZM41.1028 54.3339C41.151 54.5015 41.2259 54.6714 41.3359 54.8276L41.6661 54.4958C41.6577 54.4839 41.6406 54.4557 41.6232 54.3952L41.1028 54.3339ZM41.3359 54.8276C41.447 54.9853 41.5751 55.1027 41.7085 55.1797L41.7085 54.5329C41.6836 54.5185 41.6734 54.5061 41.6661 54.4958L41.3359 54.8276ZM41.7085 55.1797C41.8064 55.2362 41.9037 55.2689 41.9944 55.267L41.737 54.544C41.7349 54.544 41.7275 54.5439 41.7085 54.5329L41.7085 55.1797ZM41.9926 55.2671C42.0842 55.2662 42.159 55.2309 42.2151 55.1661L41.749 54.5382C41.7443 54.5436 41.7415 54.5439 41.7388 54.5439L41.9926 55.2671ZM42.2145 55.1668C42.2726 55.1005 42.3056 55.0081 42.3203 54.9023L41.7662 54.4876C41.7617 54.5203 41.7539 54.5327 41.7497 54.5375L42.2145 55.1668ZM42.0433 55.0183L42.5255 55.2968L42.5255 54.65L42.0433 54.3715L42.0433 55.0183ZM42.2459 54.7936C42.2404 54.9034 42.2147 54.9767 42.1747 55.0256L42.6461 55.6471C42.7436 55.5279 42.7947 55.3592 42.8052 55.1532L42.2459 54.7936ZM42.1744 55.0259C42.1353 55.0739 42.0809 55.1001 42.0032 55.1001L42.2537 55.8233C42.416 55.8233 42.5494 55.7659 42.6464 55.6467L42.1744 55.0259ZM42.0032 55.1001C41.9298 55.1001 41.8325 55.0714 41.7025 54.9963L41.7025 55.6431C41.9005 55.7574 42.0871 55.8233 42.2537 55.8233L42.0032 55.1001ZM42.9316 55.8922L42.789 56.0882L42.7907 56.0903L42.9316 55.8922ZM42.6185 55.3263L42.3694 55.3303L42.3697 55.3311L42.6185 55.3263ZM42.6185 54.1751L42.8673 54.4672L42.8676 54.4667L42.6185 54.1751ZM42.9316 53.9707L43.0732 54.3315L43.0736 54.3315L42.9316 53.9707ZM43.8974 54.5283L43.7547 54.7243L43.7564 54.7264L43.8974 54.5283ZM44.2117 55.0949L43.9626 55.0989L43.9629 55.0998L44.2117 55.0949ZM44.2117 56.2461L44.4605 56.5383L44.4608 56.5378L44.2117 56.2461ZM43.8974 56.4498L44.0389 56.8105L44.0394 56.8105L43.8974 56.4498ZM43.6298 55.8922L43.8106 56.2436L43.8124 56.2428L43.6298 55.8922ZM43.7582 55.7363L43.494 55.4763L43.4933 55.4785L43.7582 55.7363ZM43.7582 55.0741L43.4933 55.0261L43.4941 55.0291L43.7582 55.0741ZM43.2015 54.5228L43.022 54.1709L43.0205 54.1715L43.2015 54.5228ZM43.0708 54.6772L42.8066 54.4172L42.8058 54.4194L43.0708 54.6772ZM43.0708 55.3394L42.8058 55.2914L42.8066 55.2944L43.0708 55.3394ZM43.2015 55.6449L43.0205 55.7871L43.0237 55.7921L43.2015 55.6449ZM43.4151 55.985C43.2691 55.9007 43.1584 55.8014 43.0726 55.6941L42.7907 56.0903C42.9767 56.3228 43.1884 56.501 43.4151 56.6319L43.4151 55.985ZM43.0742 55.6962C42.9853 55.584 42.9173 55.4619 42.8673 55.3214L42.3697 55.3311C42.4669 55.6044 42.6076 55.8595 42.789 56.0882L43.0742 55.6962ZM42.8676 55.3223C42.8176 55.1811 42.7882 55.0247 42.7882 54.8493L42.228 54.5259C42.228 54.7864 42.2722 55.0558 42.3694 55.3303L42.8676 55.3223ZM42.7882 54.8493C42.7882 54.6716 42.8178 54.5492 42.8673 54.4672L42.3697 53.8829C42.272 54.0447 42.228 54.2641 42.228 54.5259L42.7882 54.8493ZM42.8676 54.4667C42.9176 54.3833 42.9852 54.3402 43.0732 54.3315L42.79 53.61C42.6076 53.628 42.4666 53.7212 42.3694 53.8834L42.8676 54.4667ZM43.0736 54.3315C43.1593 54.3228 43.2696 54.3507 43.4151 54.4348L43.4151 53.7879C43.1879 53.6568 42.9759 53.591 42.7896 53.61L43.0736 54.3315ZM43.4151 54.4348C43.5607 54.5188 43.6702 54.6177 43.7548 54.7243L44.04 54.3323C43.8542 54.0981 43.6422 53.9191 43.4151 53.7879L43.4151 54.4348ZM43.7564 54.7264C43.8451 54.8372 43.9129 54.9585 43.9626 55.0989L44.4608 55.0909C44.3634 54.8158 44.2216 54.5593 44.0383 54.3302L43.7564 54.7264ZM43.9629 55.0998C44.0124 55.239 44.042 55.3954 44.042 55.5732L44.6022 55.8966C44.6022 55.6348 44.5582 55.3646 44.4605 55.0901L43.9629 55.0998ZM44.042 55.5732C44.042 55.7486 44.0126 55.871 43.9626 55.9545L44.4608 56.5378C44.558 56.3755 44.6022 56.1571 44.6022 55.8966L44.042 55.5732ZM43.9629 55.954C43.9132 56.0364 43.8451 56.0799 43.7554 56.089L44.0394 56.8105C44.2216 56.7919 44.3631 56.6997 44.4605 56.5383L43.9629 55.954ZM43.7558 56.089C43.6711 56.0974 43.5612 56.0694 43.4151 55.985L43.4151 56.6319C43.6417 56.7627 43.8533 56.8289 44.0389 56.8105L43.7558 56.089ZM43.4175 56.1761C43.5586 56.2576 43.6962 56.2891 43.8106 56.2436L43.4491 55.5408C43.4476 55.5414 43.4466 55.5415 43.4443 55.5411C43.4414 55.5405 43.4334 55.5384 43.4175 55.5293L43.4175 56.1761ZM43.8124 56.2428C43.9134 56.2009 43.9812 56.1112 44.0232 55.9942L43.4933 55.4785C43.4776 55.5221 43.4598 55.5363 43.4473 55.5415L43.8124 56.2428ZM44.0224 55.9963C44.0644 55.8829 44.0827 55.7457 44.0827 55.5926L43.5225 55.2692C43.5225 55.3635 43.5112 55.43 43.4941 55.4763L44.0224 55.9963ZM44.0827 55.5926C44.0827 55.4394 44.0644 55.2812 44.0224 55.1192L43.4941 55.0291C43.5112 55.0952 43.5225 55.1748 43.5225 55.2692L44.0827 55.5926ZM44.0232 55.1222C43.9812 54.9568 43.9134 54.7888 43.8124 54.6301L43.4473 54.91C43.4598 54.9296 43.4776 54.9643 43.4933 55.0261L44.0232 55.1222ZM43.8124 54.6301C43.698 54.4507 43.5598 54.3217 43.4175 54.2396L43.4175 54.8864C43.4329 54.8953 43.4405 54.9022 43.4429 54.9045C43.4448 54.9064 43.4458 54.9076 43.4473 54.91L43.8124 54.6301ZM43.4175 54.2396C43.275 54.1573 43.137 54.1263 43.022 54.1709L43.3811 54.8746C43.3828 54.874 43.3889 54.8698 43.4175 54.8864L43.4175 54.2396ZM43.0205 54.1715C42.9187 54.2123 42.8497 54.3009 42.8066 54.4173L43.3349 54.9372C43.351 54.8939 43.3692 54.8794 43.3826 54.8741L43.0205 54.1715ZM42.8058 54.4194C42.7652 54.5328 42.7475 54.6694 42.7475 54.8217L43.3077 55.1451C43.3077 55.0499 43.3188 54.9824 43.3357 54.9351L42.8058 54.4194ZM42.7475 54.8217C42.7475 54.974 42.7652 55.131 42.8058 55.2914L43.3357 55.3875C43.3188 55.3207 43.3077 55.2403 43.3077 55.1451L42.7475 54.8217ZM42.8066 55.2944C42.8497 55.4606 42.9187 55.6287 43.0205 55.7871L43.3826 55.5027C43.3692 55.4819 43.351 55.4464 43.3349 55.3845L42.8066 55.2944ZM43.0237 55.7921C43.1388 55.9677 43.2761 56.0945 43.4175 56.1761L43.4175 55.5293C43.3877 55.5121 43.3811 55.5003 43.3794 55.4977L43.0237 55.7921ZM45.5658 56.6026L45.2858 56.4409L45.2858 56.4441L45.5658 56.6026ZM45.5658 55.3808L45.5658 55.0574L45.2858 54.8957L45.2858 55.2191L45.5658 55.3808ZM46.0769 55.6759L46.357 55.8376L46.357 55.5142L46.0769 55.3525L46.0769 55.6759ZM46.0769 57.8037L46.0769 58.1271L46.357 58.2888L46.357 57.9654L46.0769 57.8037ZM45.5862 57.5204L45.3062 57.3587L45.3062 57.6821L45.5862 57.8438L45.5862 57.5204ZM45.5862 57.1339L45.8663 57.2956L45.8663 56.9722L45.5862 56.8105L45.5862 57.1339ZM45.567 57.1228L45.567 56.7994L45.3748 56.6884L45.3057 56.8557L45.567 57.1228ZM45.3595 57.3036L45.2024 56.9452L45.2015 56.9454L45.3595 57.3036ZM44.6829 56.9296L44.8267 56.7351L44.6829 56.9296ZM44.4633 56.5271L44.2132 56.5283L44.214 56.5305L44.4633 56.5271ZM44.3841 56.0534L44.104 55.8917L44.1041 55.8935L44.3841 56.0534ZM44.3841 54.6985L44.3841 54.3751L44.1041 54.2134L44.1041 54.5368L44.3841 54.6985ZM44.8952 54.9936L45.1753 55.1553L45.1753 54.8319L44.8952 54.6702L44.8952 54.9936ZM44.8952 56.2431L44.6151 56.0814L44.6151 56.0838L44.8952 56.2431ZM44.9828 56.5916L45.1898 56.4932L45.1898 56.4932L44.9828 56.5916ZM45.3871 56.8859L45.5168 57.2475L45.5197 57.2474L45.3871 56.8859ZM45.5167 56.8139L45.2765 56.5088L45.275 56.5109L45.5167 56.8139ZM45.8459 56.7643L45.8459 55.5425L45.2858 55.2191L45.2858 56.4409L45.8459 56.7643ZM45.5658 55.7042L46.0769 55.9993L46.0769 55.3525L45.5658 55.0574L45.5658 55.7042ZM45.7968 55.5142L45.7968 57.642L46.357 57.9654L46.357 55.8376L45.7968 55.5142ZM46.0769 57.4803L45.5862 57.197L45.5862 57.8438L46.0769 58.1271L46.0769 57.4803ZM45.8663 57.6821L45.8663 57.2956L45.3062 56.9722L45.3062 57.3587L45.8663 57.6821ZM45.5862 56.8105L45.567 56.7994L45.567 57.4462L45.5862 57.4573L45.5862 56.8105ZM45.3057 56.8557C45.2849 56.9061 45.2524 56.9349 45.2024 56.9452L45.5166 57.662C45.6602 57.6326 45.766 57.5409 45.8284 57.39L45.3057 56.8557ZM45.2015 56.9454C45.1603 56.9541 45.1009 56.9445 45.008 56.8908L45.008 57.5377C45.1918 57.6438 45.3667 57.6938 45.5175 57.6619L45.2015 56.9454ZM45.008 56.8908C44.9287 56.8451 44.8714 56.7918 44.8267 56.7351L44.5391 57.1241C44.6815 57.3047 44.8409 57.4412 45.008 57.5377L45.008 56.8908ZM44.8267 56.7351C44.781 56.6772 44.7431 56.6101 44.7126 56.5238L44.214 56.5305C44.2891 56.7434 44.3976 56.9446 44.5391 57.1241L44.8267 56.7351ZM44.7134 56.526C44.6851 56.4447 44.6648 56.3419 44.6642 56.2133L44.1041 55.8935C44.105 56.0982 44.1375 56.3112 44.2132 56.5283L44.7134 56.526ZM44.6642 56.2151L44.6642 54.8602L44.1041 54.5368L44.1041 55.8917L44.6642 56.2151ZM44.3841 55.0219L44.8952 55.317L44.8952 54.6702L44.3841 54.3751L44.3841 55.0219ZM44.6151 54.8319L44.6151 56.0814L45.1753 56.4049L45.1753 55.1553L44.6151 54.8319ZM44.6151 56.0838C44.6163 56.2674 44.66 56.4764 44.7758 56.6899L45.1898 56.4932C45.1886 56.491 45.1859 56.4858 45.1829 56.4739C45.1796 56.4609 45.1755 56.4375 45.1753 56.4025L44.6151 56.0838ZM44.7758 56.6899C44.8937 56.9074 45.0503 57.0634 45.2143 57.1581L45.2143 56.5113C45.2054 56.5061 45.1992 56.5017 45.1955 56.4987C45.1918 56.4958 45.1901 56.4941 45.19 56.4939C45.1898 56.4938 45.1902 56.4942 45.1908 56.495C45.1913 56.4957 45.1909 56.4953 45.1898 56.4932L44.7758 56.6899ZM45.2143 57.1581C45.3202 57.2192 45.4224 57.2499 45.5168 57.2475L45.2574 56.5244C45.2446 56.5247 45.2316 56.5213 45.2143 56.5113L45.2143 57.1581ZM45.5197 57.2474C45.6216 57.243 45.7013 57.1963 45.7583 57.1169L45.275 56.5109C45.2664 56.5229 45.2597 56.5243 45.2545 56.5245L45.5197 57.2474ZM45.7568 57.1189C45.8231 57.0296 45.8471 56.9012 45.8459 56.7612L45.2858 56.4441C45.2862 56.4952 45.2774 56.5077 45.2765 56.5088L45.7568 57.1189ZM46.7265 56.9486L46.4465 56.7836L46.4465 56.7869L46.7265 56.9486ZM46.7265 58.1788L46.7265 58.5022L47.0066 58.6639L47.0066 58.3405L46.7265 58.1788ZM46.2155 57.8837L45.9354 57.722L45.9354 58.0454L46.2155 58.2071L46.2155 57.8837ZM46.2155 55.7558L46.2155 55.4324L45.9354 55.2707L45.9354 55.5941L46.2155 55.7558ZM46.7025 56.0371L46.9826 56.1988L46.9826 55.8754L46.7025 55.7137L46.7025 56.0371ZM46.7025 56.4125L46.4225 56.2508L46.4225 56.5742L46.7025 56.7359L46.7025 56.4125ZM46.7241 56.4249L46.7241 56.7484L46.9172 56.8598L46.9859 56.6911L46.7241 56.4249ZM46.9293 56.2497L47.0819 56.609L47.0833 56.6087L46.9293 56.2497ZM47.6131 56.6321L47.7551 56.4353L47.6131 56.6321ZM47.8351 57.0373L47.5853 57.0395L47.5857 57.0406L47.8351 57.0373ZM47.9142 58.8645L47.9142 59.1879L48.1943 59.3496L48.1943 59.0262L47.9142 58.8645ZM47.4032 58.5694L47.1231 58.4077L47.1231 58.7311L47.4032 58.8928L47.4032 58.5694ZM47.4032 57.3199L47.1231 57.1559L47.1231 57.1582L47.4032 57.3199ZM47.3168 56.9652L47.1099 57.0638L47.1111 57.0659L47.3168 56.9652ZM46.8933 56.6611L46.7563 56.3L46.7547 56.3001L46.8933 56.6611ZM46.7709 56.7401L46.5225 56.4472L46.5219 56.4484L46.7709 56.7401ZM46.4465 56.7869L46.4465 58.017L47.0066 58.3405L47.0066 57.1103L46.4465 56.7869ZM46.7265 57.8553L46.2155 57.5603L46.2155 58.2071L46.7265 58.5022L46.7265 57.8553ZM46.4955 58.0454L46.4955 55.9175L45.9354 55.5941L45.9354 57.722L46.4955 58.0454ZM46.2155 56.0793L46.7025 56.3605L46.7025 55.7137L46.2155 55.4324L46.2155 56.0793ZM46.4225 55.8754L46.4225 56.2508L46.9826 56.5742L46.9826 56.1988L46.4225 55.8754ZM46.7025 56.7359L46.7241 56.7484L46.7241 56.1015L46.7025 56.0891L46.7025 56.7359ZM46.9859 56.6911C47.0056 56.6427 47.0358 56.617 47.0819 56.609L46.7766 55.8904C46.6308 55.9157 46.5242 56.0068 46.4624 56.1588L46.9859 56.6911ZM47.0833 56.6087C47.1254 56.601 47.1858 56.6118 47.2784 56.6652L47.2784 56.0184C47.0975 55.914 46.9251 55.8633 46.7753 55.8907L47.0833 56.6087ZM47.2784 56.6652C47.3645 56.7149 47.4254 56.7714 47.4711 56.8288L47.7551 56.4353C47.6105 56.2535 47.4483 56.1165 47.2784 56.0184L47.2784 56.6652ZM47.4711 56.8288C47.5175 56.8872 47.5553 56.954 47.5853 57.0395L48.0848 57.035C48.0092 56.8195 47.8991 56.6162 47.7551 56.4353L47.4711 56.8288ZM47.5857 57.0406C47.6141 57.121 47.6342 57.222 47.6342 57.3479L48.1943 57.6714C48.1943 57.4667 48.1616 57.2527 48.0844 57.0339L47.5857 57.0406ZM47.6342 57.3479L47.6342 58.7028L48.1943 59.0262L48.1943 57.6714L47.6342 57.3479ZM47.9142 58.5411L47.4032 58.246L47.4032 58.8928L47.9142 59.1879L47.9142 58.5411ZM47.6832 58.7311L47.6832 57.4816L47.1231 57.1582L47.1231 58.4077L47.6832 58.7311ZM47.6832 57.4839C47.6844 57.2984 47.6427 57.084 47.5225 56.8645L47.1111 57.0659C47.1114 57.0664 47.1118 57.0672 47.1124 57.0689C47.1131 57.0706 47.1144 57.0744 47.116 57.0808C47.1192 57.0939 47.1233 57.1185 47.1231 57.1559L47.6832 57.4839ZM47.5237 56.8667C47.4025 56.6434 47.2411 56.4873 47.0757 56.3918L47.0757 57.0386C47.0977 57.0513 47.1074 57.0608 47.1091 57.0627C47.1101 57.0637 47.11 57.0637 47.1096 57.0631C47.1091 57.0624 47.1092 57.0624 47.1099 57.0638L47.5237 56.8667ZM47.0757 56.3918C46.9656 56.3282 46.8564 56.293 46.7563 56.3L47.0303 57.0223C47.0358 57.0219 47.0482 57.0227 47.0757 57.0386L47.0757 56.3918ZM46.7547 56.3001C46.6526 56.3083 46.5752 56.361 46.5225 56.4472L47.0193 57.033C47.0258 57.0223 47.03 57.0223 47.0318 57.0222L46.7547 56.3001ZM46.5219 56.4484C46.4686 56.5371 46.4476 56.6552 46.4465 56.7836L47.0066 57.1136C47.0071 57.0601 47.0156 57.0391 47.02 57.0318L46.5219 56.4484ZM49.0269 57.3791L49.307 57.5408L49.307 57.2174L49.0269 57.0557L49.0269 57.3791ZM49.0269 57.8224L49.0269 58.1458L49.307 58.3075L49.307 57.9841L49.0269 57.8224ZM47.9172 57.1817L47.6371 57.02L47.6371 57.3434L47.9172 57.5051L47.9172 57.1817ZM47.9172 56.7384L47.9172 56.4149L47.6371 56.2532L47.6371 56.5767L47.9172 56.7384ZM48.1692 56.374L48.1692 56.0506L47.8891 55.8889L47.8891 56.2123L48.1692 56.374ZM48.6802 56.6691L48.9603 56.8308L48.9603 56.5074L48.6802 56.3457L48.6802 56.6691ZM48.7018 58.7928L48.4559 58.8057L48.4577 58.8104L48.7018 58.7928ZM48.7618 58.8897L48.6564 59.1285L48.6592 59.1314L48.7618 58.8897ZM48.925 58.995L48.971 59.3408L48.9799 59.3439L48.925 58.995ZM48.9802 59.0144L49.2542 59.1058L49.1976 58.7638L48.9285 58.6668L48.9802 59.0144ZM49.0605 59.5L49.1441 59.8569L49.3872 59.9095L49.3346 59.5913L49.0605 59.5ZM48.9526 59.4695L48.8913 59.1185L48.8868 59.1172L48.9526 59.4695ZM48.7834 59.3954L48.7733 59.0663L48.7725 59.0659L48.7834 59.3954ZM48.4595 59.1516L48.3535 59.3898L48.3543 59.3906L48.4595 59.1516ZM48.2447 58.8253L48.4799 58.7855L48.2447 58.8253ZM48.1692 58.4354L48.4492 58.5992L48.4492 58.5971L48.1692 58.4354ZM48.7469 57.2174L48.7469 57.6607L49.307 57.9841L49.307 57.5408L48.7469 57.2174ZM49.0269 57.499L47.9172 56.8582L47.9172 57.5051L49.0269 58.1458L49.0269 57.499ZM48.1973 57.3434L48.1973 56.9001L47.6371 56.5767L47.6371 57.02L48.1973 57.3434ZM47.9172 57.0618L49.0269 57.7025L49.0269 57.0557L47.9172 56.4149L47.9172 57.0618ZM48.1692 56.6974L48.6802 56.9925L48.6802 56.3457L48.1692 56.0506L48.1692 56.6974ZM48.4002 56.5074L48.4002 58.4912L48.9603 58.8146L48.9603 56.8308L48.4002 56.5074ZM48.4002 58.4912C48.4002 58.5719 48.4098 58.6815 48.4559 58.8057L48.9477 58.7799C48.9571 58.8052 48.9599 58.8214 48.9605 58.8253C48.9611 58.8293 48.9603 58.826 48.9603 58.8146L48.4002 58.4912ZM48.4577 58.8104C48.5011 58.9245 48.5682 59.0362 48.6564 59.1285L48.8672 58.651C48.8837 58.6682 48.9002 58.6893 48.915 58.7132C48.9296 58.7368 48.9396 58.7584 48.9459 58.7752L48.4577 58.8104ZM48.6592 59.1314C48.7244 59.1987 48.7907 59.2478 48.853 59.2838L48.853 58.637C48.8465 58.6332 48.852 58.6353 48.8645 58.6481L48.6592 59.1314ZM48.853 59.2838C48.8926 59.3067 48.932 59.3256 48.971 59.3406L48.8789 58.6494C48.8699 58.646 48.8613 58.6418 48.853 58.637L48.853 59.2838ZM48.9799 59.3439C49.0036 59.3521 49.0207 59.3581 49.0318 59.3621L48.9285 58.6668C48.9141 58.6615 48.8944 58.6546 48.87 58.6462L48.9799 59.3439ZM48.7061 58.9231L48.7865 59.4086L49.3346 59.5913L49.2542 59.1058L48.7061 58.9231ZM48.977 59.1431C48.9623 59.1399 48.935 59.1325 48.8913 59.1186L49.0138 59.8204C49.0629 59.8361 49.1076 59.849 49.1441 59.8569L48.977 59.1431ZM48.8868 59.1172C48.8642 59.1104 48.8276 59.0954 48.7733 59.0663L48.7935 59.7244C48.872 59.7664 48.9481 59.8009 49.0183 59.8218L48.8868 59.1172ZM48.7725 59.0659C48.6801 59.0167 48.6131 58.9632 48.5647 58.9126L48.3543 59.3906C48.4914 59.5339 48.6404 59.6429 48.7943 59.7248L48.7725 59.0659ZM48.5654 58.9134C48.5235 58.8693 48.4983 58.8289 48.4799 58.7855L48.0095 58.8651C48.0935 59.0637 48.2115 59.2408 48.3535 59.3898L48.5654 58.9134ZM48.4799 58.7855C48.4657 58.7518 48.4487 58.6929 48.4492 58.5992L47.8891 58.2715C47.888 58.4558 47.9214 58.6568 48.0095 58.8651L48.4799 58.7855ZM48.4492 58.5971L48.4492 56.5357L47.8891 56.2123L47.8891 58.2737L48.4492 58.5971ZM50.6654 57.6157L50.9455 57.7774L50.9455 57.454L50.6654 57.2923L50.6654 57.6157ZM50.6654 60.4528L50.6654 60.7763L50.9455 60.938L50.9455 60.6146L50.6654 60.4528ZM50.1459 60.1529L49.8658 59.9912L49.8658 60.3146L50.1459 60.4763L50.1459 60.1529ZM50.1459 57.8852L50.426 58.0469L50.426 57.7235L50.1459 57.5618L50.1459 57.8852ZM50.1315 57.8769L50.1315 57.5535L50.051 57.507L49.9828 57.517L50.1315 57.8769ZM49.5688 57.9593L49.2888 57.7976L49.2888 58.382L49.7176 58.3192L49.5688 57.9593ZM49.5688 57.4273L49.419 57.0676L49.2888 57.0876L49.2888 57.2656L49.5688 57.4273ZM50.1771 57.3338L50.1771 57.0104L50.0959 56.9635L50.0273 56.9741L50.1771 57.3338ZM50.3853 57.454L50.3853 60.2911L50.9455 60.6146L50.9455 57.7774L50.3853 57.454ZM50.6654 60.1294L50.1459 59.8295L50.1459 60.4763L50.6654 60.7763L50.6654 60.1294ZM50.426 60.3146L50.426 58.0469L49.8658 57.7235L49.8658 59.9912L50.426 60.3146ZM50.1459 57.5618L50.1315 57.5535L50.1315 58.2003L50.1459 58.2086L50.1459 57.5618ZM49.9828 57.517L49.4201 57.5994L49.7176 58.3192L50.2803 58.2368L49.9828 57.517ZM49.8489 58.121L49.8489 57.589L49.2888 57.2656L49.2888 57.7976L49.8489 58.121ZM49.7187 57.7871L50.3269 57.6936L50.0273 56.9741L49.419 57.0676L49.7187 57.7871ZM50.1771 57.6572L50.6654 57.9391L50.6654 57.2923L50.1771 57.0104L50.1771 57.6572Z" fill="#754F9A"/>
<rect x="0.140039" y="0.242555" width="36.9186" height="8.8511" rx="1.13192" transform="matrix(0.866025 0.5 -2.20305e-08 1 28.036 49.6005)" fill="#FFDE5C"/>
<path d="M33.9735 58.732C33.8313 58.6492 33.7098 58.5358 33.6091 58.3917C33.5083 58.2476 33.4312 58.0781 33.3778 57.8831C33.3244 57.6881 33.2977 57.475 33.2977 57.2436C33.2977 57.013 33.3244 56.8313 33.3778 56.6987C33.4318 56.5664 33.5092 56.4864 33.61 56.4587C33.7113 56.4313 33.8325 56.4583 33.9735 56.5397C34.1144 56.6211 34.2353 56.7342 34.3361 56.8789C34.4369 57.023 34.5139 57.1922 34.5673 57.3865C34.6213 57.5804 34.6483 57.7927 34.6483 58.0234C34.6483 58.2554 34.6216 58.4381 34.5682 58.5715C34.5148 58.7041 34.4378 58.7846 34.337 58.813C34.2362 58.8407 34.115 58.8137 33.9735 58.732ZM33.9735 58.4546C34.0982 58.5266 34.1957 58.5126 34.2659 58.4125C34.3367 58.3127 34.3721 58.1299 34.3721 57.8639C34.3721 57.6873 34.3559 57.5287 34.3235 57.3881C34.2917 57.2471 34.2458 57.1278 34.1858 57.0301C34.1264 56.9321 34.0557 56.8594 33.9735 56.8119C33.8493 56.7402 33.7518 56.7546 33.681 56.8551C33.6103 56.9555 33.5746 57.1382 33.574 57.4031C33.574 57.5804 33.5899 57.7396 33.6217 57.8805C33.6541 58.0211 33.6999 58.1401 33.7593 58.2374C33.8187 58.334 33.8901 58.4064 33.9735 58.4546ZM35.1835 57.7994L35.4885 58.5968L35.7962 58.1531L36.0904 58.323L35.6594 58.8721L36.094 59.921L35.7998 59.7511L35.4885 58.975L35.1781 59.3921L34.8829 59.2217L35.313 58.6721L34.8883 57.629L35.1835 57.7994ZM36.8296 60.3768C36.718 60.3124 36.6185 60.222 36.5309 60.1056C36.4439 59.9889 36.3755 59.8549 36.3257 59.7036C36.2766 59.5519 36.252 59.3898 36.252 59.2173C36.252 59.0448 36.2769 58.9117 36.3266 58.8178C36.377 58.7243 36.446 58.6703 36.5336 58.6557C36.6212 58.6412 36.7204 58.666 36.8314 58.73C36.9172 58.7796 36.9862 58.836 37.0384 58.8994C37.0912 58.9624 37.1319 59.0241 37.1607 59.0843C37.1901 59.1449 37.2129 59.1965 37.2291 59.2391L37.2453 59.2485L37.2453 58.4578L37.5144 58.6131L37.5144 60.741L37.2516 60.5893L37.2516 60.341L37.2291 60.328C37.2129 60.3526 37.1895 60.3779 37.1589 60.4038C37.1289 60.4301 37.0876 60.4443 37.0348 60.4464C36.982 60.4485 36.9136 60.4253 36.8296 60.3768ZM36.889 60.1462C36.9664 60.1908 37.0318 60.205 37.0852 60.1888C37.1391 60.1721 37.1799 60.1295 37.2075 60.061C37.2357 59.9927 37.2498 59.9025 37.2498 59.7903C37.2498 59.6795 37.236 59.5745 37.2084 59.4755C37.1808 59.3764 37.1403 59.2883 37.087 59.2111C37.0336 59.1338 36.9676 59.0725 36.889 59.0272C36.808 58.9804 36.7405 58.9657 36.6866 58.983C36.6326 59.0003 36.5918 59.0429 36.5642 59.1108C36.5372 59.179 36.5237 59.2658 36.5237 59.3711C36.5237 59.4777 36.5375 59.5816 36.5651 59.6828C36.5927 59.7839 36.6335 59.875 36.6875 59.956C36.742 60.0367 36.8092 60.1001 36.889 60.1462ZM38.5381 61.3611C38.4559 61.3123 38.3749 61.2482 38.2951 61.1689C38.216 61.0899 38.144 60.993 38.0792 60.878C38.0144 60.763 37.9625 60.6288 37.9235 60.4754C37.8851 60.3223 37.8659 60.1478 37.8659 59.9517C37.8659 59.7661 37.8818 59.6104 37.9136 59.4847C37.946 59.3593 37.9925 59.2646 38.0531 59.2006C38.1137 59.1358 38.1869 59.1022 38.2726 59.0998C38.3584 59.0973 38.4547 59.127 38.5615 59.1886C38.6713 59.252 38.7687 59.3332 38.8539 59.4322C38.9391 59.5313 39.0081 59.64 39.0609 59.7585C39.1142 59.8773 39.1481 59.9969 39.1625 60.1175L38.8881 59.959C38.8695 59.8596 38.8326 59.7659 38.7774 59.678C38.7222 59.59 38.6503 59.5204 38.5615 59.4691C38.4265 59.3912 38.3212 59.3983 38.2457 59.4904C38.1707 59.5829 38.1329 59.7498 38.1323 59.9912L38.1458 59.999C38.1776 59.9571 38.2166 59.9284 38.2628 59.9128C38.3095 59.8968 38.3617 59.8941 38.4193 59.9045C38.4775 59.9145 38.5387 59.9381 38.6029 59.9751C38.7096 60.0368 38.8062 60.1227 38.8926 60.2328C38.9796 60.3426 39.0489 60.465 39.1005 60.6001C39.152 60.7351 39.1778 60.8705 39.1778 61.0063C39.1778 61.1421 39.1511 61.2496 39.0978 61.3289C39.045 61.4086 38.9706 61.4529 38.8746 61.4619C38.7786 61.4702 38.6665 61.4366 38.5381 61.3611ZM38.5372 61.0905C38.608 61.1313 38.6713 61.1478 38.727 61.1398C38.7828 61.1319 38.8269 61.1033 38.8593 61.0541C38.8917 61.0049 38.9079 60.9384 38.9079 60.8546C38.9079 60.7729 38.892 60.6892 38.8602 60.6037C38.829 60.5185 38.7858 60.4402 38.7306 60.3689C38.6761 60.2979 38.6137 60.2421 38.5435 60.2016C38.4901 60.1708 38.4406 60.154 38.395 60.1512C38.35 60.1488 38.3104 60.1585 38.2762 60.1803C38.2421 60.2021 38.2151 60.2343 38.1953 60.2769C38.1761 60.3192 38.1665 60.3701 38.1665 60.4297C38.1665 60.5093 38.1824 60.5923 38.2142 60.6785C38.2466 60.7651 38.2906 60.8453 38.3464 60.919C38.4028 60.9925 38.4664 61.0496 38.5372 61.0905ZM40.0913 62.261C39.9576 62.1838 39.8424 62.0823 39.7458 61.9566C39.6498 61.8305 39.5761 61.6906 39.5245 61.5368C39.4729 61.3831 39.4471 61.2262 39.4471 61.0662C39.4471 60.9041 39.4735 60.7763 39.5263 60.6828C39.5791 60.5886 39.6534 60.5342 39.7494 60.5197C39.8454 60.5051 39.9585 60.5354 40.0886 60.6106C40.1936 60.6712 40.2872 60.7477 40.3694 60.8402C40.4516 60.932 40.5178 61.0326 40.5682 61.142C40.6192 61.2518 40.6495 61.3632 40.6591 61.4761L40.3973 61.3249C40.3829 61.2418 40.3499 61.1583 40.2983 61.0745C40.2473 60.991 40.1789 60.9245 40.0931 60.875C40.0182 60.8317 39.9525 60.8166 39.8961 60.8298C39.8403 60.8426 39.7968 60.8819 39.7656 60.9477C39.7344 61.0128 39.7188 61.1022 39.7188 61.2158C39.7188 61.3322 39.7341 61.4414 39.7647 61.5436C39.7953 61.6458 39.8385 61.7361 39.8943 61.8148C39.9507 61.8937 40.017 61.9552 40.0931 61.9992C40.1441 62.0286 40.1903 62.0446 40.2317 62.047C40.2737 62.0491 40.3088 62.0378 40.337 62.0132C40.3658 61.989 40.3859 61.9514 40.3973 61.9005L40.6591 62.0517C40.6495 62.1493 40.6204 62.2246 40.5718 62.2776C40.5232 62.3306 40.4582 62.3568 40.3766 62.3561C40.2956 62.3557 40.2005 62.324 40.0913 62.261ZM41.1241 62.825L40.8289 62.6547L41.4921 60.9097L41.8133 61.0951L42.4764 63.6058L42.1813 63.4354L41.6603 61.3933L41.6459 61.385L41.1241 62.825ZM41.1736 62.0204L42.1309 62.5731L42.1309 62.8432L41.1736 62.2905L41.1736 62.0204ZM43.2809 64.1025C43.1471 64.0252 43.0319 63.9238 42.9353 63.7981C42.8394 63.672 42.7656 63.5321 42.714 63.3783C42.6624 63.2245 42.6366 63.0676 42.6366 62.9076C42.6366 62.7456 42.663 62.6178 42.7158 62.5243C42.7686 62.4301 42.843 62.3757 42.9389 62.3611C43.0349 62.3466 43.148 62.3769 43.2782 62.4521C43.3831 62.5127 43.4767 62.5892 43.5589 62.6817C43.6411 62.7734 43.7074 62.8741 43.7577 62.9835C43.8087 63.0933 43.839 63.2046 43.8486 63.3175L43.5868 63.1664C43.5724 63.0832 43.5394 62.9998 43.4878 62.916C43.4368 62.8325 43.3684 62.766 43.2827 62.7165C43.2077 62.6732 43.142 62.6581 43.0856 62.6713C43.0298 62.6841 42.9863 62.7234 42.9551 62.7892C42.9239 62.8543 42.9083 62.9437 42.9083 63.0573C42.9083 63.1736 42.9236 63.2829 42.9542 63.3851C42.9848 63.4872 43.028 63.5776 43.0838 63.6562C43.1402 63.7352 43.2065 63.7967 43.2827 63.8407C43.3336 63.8701 43.3798 63.886 43.4212 63.8884C43.4632 63.8905 43.4983 63.8793 43.5265 63.8547C43.5553 63.8304 43.5754 63.7929 43.5868 63.7419L43.8486 63.8931C43.839 63.9908 43.8099 64.0661 43.7613 64.1191C43.7128 64.1721 43.6477 64.1982 43.5661 64.1975C43.4851 64.1972 43.39 64.1655 43.2809 64.1025ZM44.741 64.9424C44.6282 64.8773 44.5268 64.7938 44.4369 64.692C44.3475 64.5898 44.2761 64.4793 44.2227 64.3605C44.1693 64.2417 44.1408 64.1249 44.1372 64.0099L44.4072 64.1657C44.4138 64.261 44.4488 64.3564 44.5124 64.452C44.576 64.5475 44.6522 64.621 44.741 64.6722C44.8118 64.7131 44.8744 64.7306 44.929 64.7247C44.9842 64.7185 45.0274 64.6911 45.0586 64.6426C45.0904 64.5945 45.1063 64.5278 45.1063 64.4426C45.1063 64.356 45.0901 64.2694 45.0577 64.1829C45.0253 64.0963 44.9806 64.0171 44.9236 63.9455C44.8672 63.8741 44.8025 63.817 44.7293 63.774C44.6735 63.7418 44.6174 63.7205 44.561 63.7101C44.5046 63.6997 44.459 63.7025 44.4243 63.7184L44.1696 63.5278L44.2731 62.5153L45.2862 63.1002L45.2862 63.3756L44.5043 62.9241L44.4459 63.4857L44.4566 63.4919C44.4926 63.4725 44.5403 63.4665 44.5997 63.4738C44.6597 63.4814 44.7239 63.5049 44.7923 63.5444C44.9044 63.6092 45.0043 63.6977 45.0919 63.8099C45.1801 63.9224 45.2494 64.0466 45.2997 64.1823C45.3507 64.3178 45.3759 64.4542 45.3753 64.5917C45.3759 64.7299 45.3489 64.8373 45.2943 64.9138C45.2404 64.9907 45.1654 65.0326 45.0694 65.0395C44.974 65.0461 44.8646 65.0137 44.741 64.9424ZM47.2597 64.9316L46.979 64.7695C46.9682 64.694 46.9481 64.6214 46.9187 64.5518C46.8893 64.4822 46.8533 64.4168 46.8107 64.3555C46.7681 64.2942 46.7204 64.2389 46.6676 64.1897C46.6155 64.1409 46.56 64.0995 46.5012 64.0656C46.395 64.0043 46.2999 63.9802 46.216 63.9934C46.1326 64.0069 46.0666 64.0592 46.018 64.1503C45.97 64.2417 45.946 64.3733 45.946 64.5451C45.946 64.7182 45.97 64.8782 46.018 65.0251C46.0666 65.1723 46.1329 65.3006 46.2169 65.41C46.3008 65.5195 46.3953 65.6045 46.5003 65.6651C46.5585 65.6987 46.6137 65.7216 46.6658 65.7337C46.7186 65.7455 46.7663 65.7456 46.8089 65.7342C46.8515 65.7228 46.8875 65.6996 46.9169 65.6646C46.9469 65.6293 46.9676 65.5809 46.979 65.5196L47.2597 65.6828C47.2447 65.7787 47.2156 65.8582 47.1724 65.9212C47.1298 65.9839 47.0749 66.0277 47.0078 66.0526C46.9412 66.0772 46.865 66.0821 46.7792 66.0672C46.6934 66.0523 46.5999 66.0156 46.4985 65.9571C46.3389 65.8649 46.1968 65.7392 46.072 65.5799C45.9472 65.4199 45.8488 65.2374 45.7769 65.0324C45.7055 64.8277 45.6698 64.6121 45.6698 64.3856C45.6698 64.1584 45.7058 63.9842 45.7778 63.863C45.8497 63.7411 45.9481 63.6725 46.0729 63.6573C46.1977 63.6413 46.3395 63.6793 46.4985 63.771C46.5963 63.8275 46.6874 63.8964 46.772 63.9778C46.8572 64.0588 46.9337 64.1501 47.0015 64.2516C47.0692 64.3524 47.1253 64.4602 47.1697 64.5752C47.2141 64.6895 47.2441 64.8083 47.2597 64.9316ZM48.2088 66.9507C48.0666 66.8679 47.9451 66.7545 47.8443 66.6104C47.7436 66.4664 47.6665 66.2968 47.6131 66.1019C47.5597 65.9069 47.533 65.6937 47.533 65.4624C47.533 65.2317 47.5597 65.0501 47.6131 64.9174C47.6671 64.7851 47.7445 64.7051 47.8452 64.6774C47.9466 64.6501 48.0678 64.6771 48.2088 64.7585C48.3497 64.8398 48.4706 64.9529 48.5714 65.0977C48.6721 65.2418 48.7492 65.4109 48.8026 65.6052C48.8566 65.7992 48.8836 66.0115 48.8836 66.2421C48.8836 66.4742 48.8569 66.6569 48.8035 66.7902C48.7501 66.9228 48.673 67.0034 48.5723 67.0318C48.4715 67.0595 48.3503 67.0324 48.2088 66.9507ZM48.2088 66.6733C48.3335 66.7453 48.431 66.7313 48.5012 66.6312C48.572 66.5315 48.6074 66.3486 48.6074 66.0826C48.6074 65.906 48.5912 65.7474 48.5588 65.6068C48.527 65.4658 48.4811 65.3465 48.4211 65.2489C48.3617 65.1509 48.2909 65.0781 48.2088 65.0307C48.0846 64.959 47.9871 64.9734 47.9163 65.0738C47.8455 65.1742 47.8098 65.3569 47.8092 65.6219C47.8092 65.7992 47.8251 65.9583 47.8569 66.0993C47.8893 66.2399 47.9352 66.3588 47.9946 66.4562C48.054 66.5528 48.1254 66.6252 48.2088 66.6733ZM49.228 67.5038L49.228 65.376L50.3707 66.0358L50.3707 66.3121L49.506 65.8129L49.506 66.4612L50.2888 66.9132L50.2888 67.1885L49.506 66.7366L49.506 67.6644L49.228 67.5038ZM51.107 68.6198C50.9954 68.5554 50.8958 68.465 50.8082 68.3487C50.7213 68.232 50.6529 68.0979 50.6031 67.9466C50.5539 67.7949 50.5293 67.6328 50.5293 67.4603C50.5293 67.2879 50.5542 67.1547 50.604 67.0608C50.6544 66.9673 50.7234 66.9133 50.8109 66.8988C50.8985 66.8842 50.9978 66.909 51.1088 66.9731C51.1945 67.0226 51.2635 67.079 51.3157 67.1424C51.3685 67.2054 51.4093 67.2671 51.4381 67.3273C51.4675 67.388 51.4903 67.4396 51.5065 67.4822L51.5227 67.4915L51.5227 66.7008L51.7917 66.8562L51.7917 68.984L51.529 68.8323L51.529 68.584L51.5065 68.571C51.4903 68.5956 51.4669 68.6209 51.4363 68.6469C51.4063 68.6732 51.3649 68.6874 51.3121 68.6895C51.2593 68.6915 51.1909 68.6683 51.107 68.6198ZM51.1663 68.3892C51.2437 68.4339 51.3091 68.4481 51.3625 68.4318C51.4165 68.4152 51.4573 68.3726 51.4849 68.304C51.5131 68.2358 51.5272 68.1455 51.5272 68.0333C51.5272 67.9225 51.5134 67.8176 51.4858 67.7185C51.4582 67.6195 51.4177 67.5313 51.3643 67.4541C51.3109 67.3769 51.2449 67.3156 51.1663 67.2702C51.0854 67.2234 51.0179 67.2087 50.9639 67.226C50.9099 67.2434 50.8691 67.286 50.8415 67.3538C50.8145 67.4221 50.801 67.5088 50.801 67.6141C50.801 67.7208 50.8148 67.8247 50.8424 67.9258C50.87 68.0269 50.9108 68.118 50.9648 68.1991C51.0194 68.2797 51.0866 68.3431 51.1663 68.3892ZM52.1973 69.2182L52.1973 67.0903L53.3526 67.7574L53.3526 68.0337L52.4753 67.5272L52.4753 68.1755L53.2923 68.6472L53.2923 68.9226L52.4753 68.4509L52.4753 69.1023L53.3634 69.6151L53.3634 69.8914L52.1973 69.2182ZM54.3115 68.2819C54.3937 68.3301 54.4747 68.3941 54.5545 68.4741C54.6343 68.5541 54.7063 68.6511 54.7704 68.765C54.8352 68.8793 54.8868 69.013 54.9252 69.1661C54.9642 69.3188 54.984 69.4923 54.9846 69.6866C54.9846 69.8729 54.9684 70.0295 54.936 70.1562C54.9036 70.2823 54.8571 70.3777 54.7965 70.4425C54.7365 70.5076 54.6637 70.5414 54.5779 70.5438C54.4921 70.5462 54.3955 70.5164 54.2882 70.4544C54.1784 70.391 54.0809 70.3098 53.9957 70.2108C53.9105 70.1117 53.8413 70.0028 53.7879 69.884C53.7345 69.7645 53.7012 69.6435 53.688 69.5209L53.9624 69.6793C53.9804 69.7812 54.017 69.8764 54.0722 69.9651C54.128 70.0534 54.2 70.123 54.2882 70.1739C54.4231 70.2518 54.5284 70.2447 54.604 70.1526C54.6796 70.0598 54.7177 69.8913 54.7182 69.6471L54.7039 69.6388C54.6727 69.6804 54.6337 69.7091 54.5869 69.7251C54.5407 69.7413 54.4888 69.7446 54.4312 69.7349C54.3736 69.7252 54.3121 69.7015 54.2468 69.6638C54.1406 69.6025 54.044 69.5166 53.957 69.4061C53.8701 69.2956 53.8008 69.1728 53.7492 69.0378C53.6976 68.9027 53.6718 68.7676 53.6718 68.6326C53.6718 68.4982 53.6982 68.3915 53.751 68.3126C53.8044 68.2339 53.8788 68.1903 53.9741 68.1817C54.0701 68.1726 54.1826 68.2061 54.3115 68.2819ZM54.3124 68.5526C54.2423 68.512 54.179 68.4956 54.1226 68.5032C54.0668 68.5105 54.0227 68.5387 53.9903 68.5879C53.9579 68.6364 53.9417 68.7018 53.9417 68.7843C53.9417 68.8667 53.9573 68.9505 53.9885 69.0357C54.0203 69.1205 54.0635 69.1985 54.1181 69.2695C54.1733 69.3401 54.2363 69.3959 54.307 69.4367C54.3598 69.4672 54.409 69.4838 54.4546 69.4866C54.5002 69.4894 54.5401 69.4799 54.5743 69.458C54.6085 69.4355 54.6352 69.4031 54.6544 69.3609C54.6736 69.3186 54.6832 69.2681 54.6832 69.2092C54.6832 69.1309 54.667 69.0489 54.6346 68.963C54.6028 68.8774 54.559 68.7981 54.5032 68.725C54.4474 68.6513 54.3838 68.5938 54.3124 68.5526Z" fill="#754F9A"/>
<rect x="0.140039" y="0.242555" width="36.9186" height="8.8511" rx="1.13192" transform="matrix(0.866025 0.5 -2.20305e-08 1 28.036 49.6005)" stroke="#754F9A" stroke-width="0.323406"/>
<rect x="0.140039" y="0.242555" width="7.51878" height="1.94666" rx="0.161703" transform="matrix(0.866025 0.5 -2.20305e-08 1 33.4148 63.1741)" fill="white" stroke="#754F9A" stroke-width="0.323406"/>
<rect x="0.140039" y="0.242555" width="7.51878" height="1.94666" rx="0.161703" transform="matrix(0.866025 0.5 -2.20305e-08 1 40.7665 67.4186)" fill="white" stroke="#754F9A" stroke-width="0.323406"/>
<rect x="0.140039" y="0.242555" width="7.51878" height="1.94666" rx="0.161703" transform="matrix(0.866025 0.5 -2.20305e-08 1 48.1182 71.6631)" fill="white" stroke="#754F9A" stroke-width="0.323406"/>
<path d="M77.3326 64.3123L84.6086 60.1169L86.6907 61.46C87.0138 61.6685 87.209 62.0267 87.209 62.4112V70.9986C87.209 71.3966 87 71.7654 86.6585 71.9698L78.7882 76.6815C78.7879 76.6818 78.7875 76.682 78.7871 76.6822C74.8355 78.9631 69.9672 78.9633 66.0154 76.6825L65.29 76.2639C64.7395 75.9462 64.4004 75.3589 64.4004 74.7233V66.3784C64.4004 66.0895 64.5545 65.8226 64.8046 65.6782L66.7164 64.5744C67.0816 64.3636 67.5391 64.3772 67.9284 64.5788C70.8068 66.0695 74.5137 65.9398 77.3326 64.3123Z" fill="#FF855E" stroke="#754F9A" stroke-width="0.323406"/>
<mask id="path-50-inside-6_190_1333" fill="white">
<path fill-rule="evenodd" clip-rule="evenodd" d="M84.6133 59.9275L84.6133 59.9275L83.6431 59.2807V60.4869L77.2518 64.1723C74.4655 65.7809 70.8809 65.782 67.98 64.388C67.5634 64.1878 67.073 64.1818 66.6727 64.4129L64.7239 65.5381C64.5083 65.6626 64.5083 65.9738 64.7239 66.0983L65.9345 66.797C69.9368 69.1068 74.8672 69.1065 78.8691 66.796L86.7232 62.2663C87.1546 62.0175 87.1547 61.3948 86.7234 61.1458L84.6133 59.9275Z"/>
</mask>
<path fill-rule="evenodd" clip-rule="evenodd" d="M84.6133 59.9275L84.6133 59.9275L83.6431 59.2807V60.4869L77.2518 64.1723C74.4655 65.7809 70.8809 65.782 67.98 64.388C67.5634 64.1878 67.073 64.1818 66.6727 64.4129L64.7239 65.5381C64.5083 65.6626 64.5083 65.9738 64.7239 66.0983L65.9345 66.797C69.9368 69.1068 74.8672 69.1065 78.8691 66.796L86.7232 62.2663C87.1546 62.0175 87.1547 61.3948 86.7234 61.1458L84.6133 59.9275Z" fill="#FFE15F"/>
<path d="M84.6133 59.9275L84.7343 60.2275L85.3026 59.9983L84.7927 59.6584L84.6133 59.9275ZM84.6133 59.9275L84.4923 59.6276L83.8769 59.8758L84.4516 60.2076L84.6133 59.9275ZM83.6431 59.2807L83.8225 59.0116L83.3197 58.6765V59.2807H83.6431ZM83.6431 60.4869L83.8047 60.7671L83.9665 60.6738V60.4869H83.6431ZM77.2518 64.1723L77.0902 63.8921L77.0901 63.8922L77.2518 64.1723ZM67.98 64.388L67.8399 64.6795H67.8399L67.98 64.388ZM66.6727 64.4129L66.8345 64.693H66.8345L66.6727 64.4129ZM64.7239 65.5381L64.5622 65.258H64.5622L64.7239 65.5381ZM64.7239 66.0983L64.8856 65.8182L64.8856 65.8181L64.7239 66.0983ZM65.9345 66.797L66.0962 66.5168H66.0962L65.9345 66.797ZM78.8691 66.796L78.7075 66.5158L78.7074 66.5159L78.8691 66.796ZM86.7232 62.2663L86.5616 61.9861V61.9861L86.7232 62.2663ZM86.7234 61.1458L86.8851 60.8657L86.7234 61.1458ZM84.4924 59.6276L84.4923 59.6276L84.7343 60.2275L84.7343 60.2275L84.4924 59.6276ZM83.4637 59.5498L84.434 60.1966L84.7927 59.6584L83.8225 59.0116L83.4637 59.5498ZM83.9665 60.4869V59.2807H83.3197V60.4869H83.9665ZM77.4133 64.4524L83.8047 60.7671L83.4816 60.2068L77.0902 63.8921L77.4133 64.4524ZM67.8399 64.6795C70.8277 66.1153 74.526 66.1194 77.4135 64.4523L77.0901 63.8922C74.405 65.4424 70.9341 65.4488 68.12 64.0965L67.8399 64.6795ZM66.8345 64.693C67.1309 64.5218 67.5073 64.5197 67.8399 64.6795L68.12 64.0965C67.6195 63.856 67.0151 63.8418 66.511 64.1328L66.8345 64.693ZM64.8856 65.8182L66.8345 64.693L66.511 64.1328L64.5622 65.258L64.8856 65.8182ZM64.8856 65.8181L64.8856 65.8182L64.5622 65.258C64.1309 65.507 64.131 66.1294 64.5623 66.3784L64.8856 65.8181ZM66.0962 66.5168L64.8856 65.8182L64.5623 66.3784L65.7729 67.0771L66.0962 66.5168ZM78.7074 66.5159C74.8056 68.7686 69.9984 68.769 66.0962 66.5168L65.7729 67.0771C69.8752 69.4447 74.9289 69.4443 79.0308 67.076L78.7074 66.5159ZM86.5616 61.9861L78.7075 66.5158L79.0307 67.0761L86.8847 62.5464L86.5616 61.9861ZM86.5617 61.4259C86.7774 61.5504 86.7773 61.8617 86.5616 61.9861L86.8847 62.5464C87.5319 62.1732 87.5321 61.2393 86.8851 60.8657L86.5617 61.4259ZM84.4516 60.2076L86.5617 61.4259L86.8851 60.8657L84.775 59.6475L84.4516 60.2076Z" fill="#754F9A" mask="url(#path-50-inside-6_190_1333)"/>
<mask id="path-52-inside-7_190_1333" fill="white">
<path fill-rule="evenodd" clip-rule="evenodd" d="M66.0049 71.4178L65.4359 70.4332L66.5733 69.8032C66.9624 69.5506 67.5145 69.5714 68.1269 69.925C69.3051 70.6052 70.2602 72.2595 70.2602 73.6199C70.2602 74.3262 70.0027 74.8145 69.5903 75.0255L69.595 75.0341L68.4495 75.6481L67.9093 74.7133C66.9058 74.0166 66.1079 72.6355 66.0049 71.4178Z"/>
</mask>
<path fill-rule="evenodd" clip-rule="evenodd" d="M66.0049 71.4178L65.4359 70.4332L66.5733 69.8032C66.9624 69.5506 67.5145 69.5714 68.1269 69.925C69.3051 70.6052 70.2602 72.2595 70.2602 73.6199C70.2602 74.3262 70.0027 74.8145 69.5903 75.0255L69.595 75.0341L68.4495 75.6481L67.9093 74.7133C66.9058 74.0166 66.1079 72.6355 66.0049 71.4178Z" fill="#78C2FF"/>
<path d="M65.4359 70.4332L65.3575 70.2917L65.2135 70.3715L65.2958 70.5141L65.4359 70.4332ZM66.0049 71.4178L66.166 71.4042L66.1629 71.3682L66.1449 71.3369L66.0049 71.4178ZM66.5733 69.8032L66.6519 69.945L66.6614 69.9388L66.5733 69.8032ZM68.1269 69.925L68.2077 69.7849V69.7849L68.1269 69.925ZM69.5903 75.0255L69.5166 74.8816L69.3684 74.9574L69.4486 75.1034L69.5903 75.0255ZM69.595 75.0341L69.6714 75.1767L69.8154 75.0995L69.7368 74.9563L69.595 75.0341ZM68.4495 75.6481L68.3095 75.729L68.3878 75.8646L68.5259 75.7906L68.4495 75.6481ZM67.9093 74.7133L68.0493 74.6324L68.0312 74.6011L68.0015 74.5805L67.9093 74.7133ZM65.2958 70.5141L65.8648 71.4987L66.1449 71.3369L65.5759 70.3523L65.2958 70.5141ZM66.495 69.6617L65.3575 70.2917L65.5142 70.5747L66.6517 69.9446L66.495 69.6617ZM66.6614 69.9388C66.9811 69.7312 67.4642 69.7291 68.046 70.065L68.2077 69.7849C67.5648 69.4137 66.9437 69.37 66.4853 69.6675L66.6614 69.9388ZM68.046 70.065C68.6048 70.3876 69.1197 70.9476 69.4953 71.5982C69.8709 72.2488 70.0985 72.9748 70.0985 73.6199H70.4219C70.4219 72.9046 70.1719 72.1232 69.7754 71.4365C69.3789 70.7498 68.8272 70.1426 68.2077 69.7849L68.046 70.065ZM70.0985 73.6199C70.0985 74.291 69.8556 74.7081 69.5166 74.8816L69.664 75.1695C70.1499 74.9209 70.4219 74.3615 70.4219 73.6199H70.0985ZM69.7368 74.9563L69.732 74.9477L69.4486 75.1034L69.4533 75.112L69.7368 74.9563ZM68.5259 75.7906L69.6714 75.1767L69.5187 74.8916L68.3731 75.5056L68.5259 75.7906ZM67.7693 74.7942L68.3095 75.729L68.5895 75.5672L68.0493 74.6324L67.7693 74.7942ZM68.0015 74.5805C67.0377 73.9113 66.2649 72.5739 66.166 71.4042L65.8437 71.4314C65.9508 72.6971 66.774 74.1219 67.8171 74.8461L68.0015 74.5805Z" fill="#754F9A" mask="url(#path-52-inside-7_190_1333)"/>
<rect x="0.140039" y="0.242555" width="4.60323" height="4.60323" rx="2.30161" transform="matrix(0.866025 0.5 -2.20305e-08 1 64.9043 69.2363)" fill="white" stroke="#754F9A" stroke-width="0.323406"/>
<mask id="path-55-inside-8_190_1333" fill="white">
<path fill-rule="evenodd" clip-rule="evenodd" d="M24.9553 68.8441L20.9862 68.8457C16.8017 66.8802 10.7679 66.8822 6.58708 68.8515L2.80413 68.8531C2.93574 67.3225 4.01387 65.8141 6.0385 64.6452C10.3693 62.1448 17.3909 62.1448 21.7217 64.6452C23.7424 65.8118 24.8203 67.3167 24.9553 68.8441ZM25.2804 68.844C25.1451 67.2685 24.0354 65.7158 21.9513 64.5126C17.4937 61.939 10.2665 61.939 5.80888 64.5126C3.4311 65.8854 2.32167 67.7132 2.4806 69.5106L2.34599 73.7681L2.3833 73.7689C2.29442 75.5196 3.40718 77.2869 5.72159 78.6231C10.1792 81.1967 17.4064 81.1967 21.864 78.6231C24.1818 77.2849 25.2945 75.5144 25.2019 73.7612L25.277 69.5392C25.2961 69.3403 25.2996 69.1409 25.2876 68.9418L25.2893 68.844L25.2804 68.844Z"/>
</mask>
<path fill-rule="evenodd" clip-rule="evenodd" d="M24.9553 68.8441L20.9862 68.8457C16.8017 66.8802 10.7679 66.8822 6.58708 68.8515L2.80413 68.8531C2.93574 67.3225 4.01387 65.8141 6.0385 64.6452C10.3693 62.1448 17.3909 62.1448 21.7217 64.6452C23.7424 65.8118 24.8203 67.3167 24.9553 68.8441ZM25.2804 68.844C25.1451 67.2685 24.0354 65.7158 21.9513 64.5126C17.4937 61.939 10.2665 61.939 5.80888 64.5126C3.4311 65.8854 2.32167 67.7132 2.4806 69.5106L2.34599 73.7681L2.3833 73.7689C2.29442 75.5196 3.40718 77.2869 5.72159 78.6231C10.1792 81.1967 17.4064 81.1967 21.864 78.6231C24.1818 77.2849 25.2945 75.5144 25.2019 73.7612L25.277 69.5392C25.2961 69.3403 25.2996 69.1409 25.2876 68.9418L25.2893 68.844L25.2804 68.844Z" fill="#FF855E"/>
<path d="M20.9862 68.8457L20.9417 68.9404L20.9629 68.9503L20.9862 68.9503L20.9862 68.8457ZM24.9553 68.8441L24.9554 68.9487L25.0696 68.9487L25.0595 68.8349L24.9553 68.8441ZM6.58708 68.8515L6.58712 68.9561L6.6105 68.9561L6.63165 68.9462L6.58708 68.8515ZM2.80413 68.8531L2.69992 68.8441L2.69015 68.9577L2.80417 68.9577L2.80413 68.8531ZM6.0385 64.6452L5.98621 64.5546L6.0385 64.6452ZM25.2804 68.844L25.1762 68.8529L25.1845 68.9486L25.2805 68.9486L25.2804 68.844ZM5.80888 64.5126L5.86118 64.6032L5.80888 64.5126ZM2.4806 69.5106L2.5859 69.5139L2.58479 69.5014L2.4806 69.5106ZM2.34599 73.7681L2.24145 73.7648L2.2381 73.8704L2.34378 73.8727L2.34599 73.7681ZM2.3833 73.7689L2.48776 73.7742L2.49322 73.6666L2.38551 73.6643L2.3833 73.7689ZM21.864 78.6231L21.8117 78.5325L21.864 78.6231ZM25.2019 73.7612L25.0971 73.7593L25.0975 73.7667L25.2019 73.7612ZM25.277 69.5392L25.1725 69.5292L25.1724 69.5374L25.277 69.5392ZM25.2876 68.9418L25.1827 68.9399L25.1832 68.9481L25.2876 68.9418ZM25.2893 68.844L25.3939 68.8458L25.3958 68.7393L25.2893 68.7394L25.2893 68.844ZM20.9862 68.9503L24.9554 68.9487L24.9553 68.7395L20.9861 68.7411L20.9862 68.9503ZM6.63165 68.9462C10.7843 66.9901 16.7854 66.9881 20.9417 68.9404L21.0306 68.751C16.818 66.7723 10.7515 66.7743 6.54251 68.7569L6.63165 68.9462ZM2.80417 68.9577L6.58712 68.9561L6.58704 68.7469L2.80408 68.7485L2.80417 68.9577ZM5.98621 64.5546C3.94367 65.7338 2.83546 67.268 2.69992 68.8441L2.90833 68.862C3.03603 67.3771 4.08407 65.8943 6.0908 64.7357L5.98621 64.5546ZM21.774 64.5546C19.589 63.293 16.7317 62.6653 13.8801 62.6653C11.0285 62.6653 8.17125 63.293 5.98621 64.5546L6.0908 64.7357C8.23656 63.4969 11.0555 62.8745 13.8801 62.8745C16.7047 62.8745 19.5237 63.4969 21.6694 64.7357L21.774 64.5546ZM25.0595 68.8349C24.9204 67.262 23.8126 65.7315 21.774 64.5546L21.6694 64.7357C23.6722 65.8921 24.7201 67.3713 24.8511 68.8533L25.0595 68.8349ZM25.3847 68.835C25.2454 67.214 24.1056 65.6356 22.0036 64.422L21.899 64.6032C23.9652 65.796 25.0448 67.3231 25.1762 68.8529L25.3847 68.835ZM22.0036 64.422C19.7552 63.1239 16.8148 62.4778 13.8801 62.4778C10.9454 62.4778 8.00504 63.1239 5.75659 64.422L5.86118 64.6032C8.07035 63.3277 10.9724 62.687 13.8801 62.687C16.7878 62.687 19.6899 63.3277 21.899 64.6032L22.0036 64.422ZM5.75659 64.422C3.35849 65.8065 2.2126 67.6671 2.37642 69.5198L2.58479 69.5014C2.43074 67.7592 3.5037 65.9643 5.86118 64.6032L5.75659 64.422ZM2.45052 73.7714L2.58514 69.5139L2.37606 69.5073L2.24145 73.7648L2.45052 73.7714ZM2.38551 73.6643L2.34819 73.6635L2.34378 73.8727L2.3811 73.8735L2.38551 73.6643ZM5.77388 78.5325C3.47924 77.2077 2.40159 75.4716 2.48776 73.7742L2.27885 73.7636C2.18726 75.5676 3.33512 77.3661 5.66929 78.7137L5.77388 78.5325ZM21.8117 78.5325C19.6026 79.808 16.7005 80.4487 13.7928 80.4487C10.8851 80.4487 7.98305 79.808 5.77388 78.5325L5.66929 78.7137C7.91774 80.0118 10.8581 80.6579 13.7928 80.6579C16.7275 80.6579 19.6679 80.0118 21.9163 78.7137L21.8117 78.5325ZM25.0975 73.7667C25.1872 75.4665 24.1098 77.2058 21.8117 78.5325L21.9163 78.7137C24.2539 77.3641 25.4017 75.5623 25.3064 73.7557L25.0975 73.7667ZM25.1724 69.5374L25.0974 73.7593L25.3065 73.7631L25.3816 69.5411L25.1724 69.5374ZM25.3811 69.5492C25.4007 69.3448 25.4043 69.14 25.392 68.9355L25.1832 68.9481C25.1949 69.1417 25.1914 69.3357 25.1729 69.5292L25.3811 69.5492ZM25.1848 68.8421L25.183 68.9399L25.3922 68.9436L25.3939 68.8458L25.1848 68.8421ZM25.2805 68.9486L25.2894 68.9486L25.2893 68.7394L25.2804 68.7394L25.2805 68.9486Z" fill="#754F9A" mask="url(#path-55-inside-8_190_1333)"/>
<path d="M21.7123 64.6506C26.0379 67.148 26.0379 71.197 21.7123 73.6944C17.3867 76.1918 10.3735 76.1918 6.04795 73.6944C1.72236 71.197 1.72236 67.148 6.04795 64.6506C10.3735 62.1532 17.3867 62.1532 21.7123 64.6506Z" fill="#FFE15F" stroke="#754F9A" stroke-width="0.104592"/>
<path d="M10.97 70.3253L19.3113 71.5194L19.4389 71.593L19.3768 71.4484L17.3142 66.6473L17.3621 66.5736L17.2873 66.5847L17.2645 66.5318L17.2241 66.594L12.2634 67.3294L12.2289 67.3095L12.217 67.3363L12.097 67.3541L12.1862 67.4056L10.9203 70.2509L10.8784 70.3451L10.97 70.3253ZM16.6663 66.3497L16.6638 66.2459L9.10136 65.5038L8.998 65.4441L9.03483 65.5695L10.3198 69.9436L10.3598 70.0799L10.4177 69.9501L11.694 67.0877L16.6663 66.3497Z" fill="#78C2FF" stroke="#754F9A" stroke-width="0.104592"/>
<path d="M19.3286 71.4689L17.255 66.6422L15.5407 69.2819L19.3286 71.4689Z" fill="#71D4FE"/>
<path d="M15.5407 69.282L17.255 66.6423L12.2531 67.3839L15.5407 69.282Z" fill="#78C2FF"/>
<path d="M10.9681 70.2722L19.3287 71.4691L15.5407 69.2821L10.9681 70.2722Z" fill="#78C2FF"/>
<path d="M12.253 67.3839L10.968 70.2721L15.5406 69.282L12.253 67.3839Z" fill="#8194FF"/>
<path d="M16.6587 66.298L9.08505 65.5548L11.6579 67.0403L16.6587 66.298Z" fill="#71D4FE"/>
<path d="M11.6578 67.0403L9.08495 65.5548L10.3699 69.9288L11.6578 67.0403Z" fill="#78C2FF"/>
<path d="M27.6938 68.0895L24.1364 66.0723L25.2683 69.381L27.6938 70.7617V68.0895Z" fill="#754F9A"/>
<defs>
<linearGradient id="paint0_linear_190_1333" x1="69.9368" y1="72.2663" x2="64.0658" y2="72.2663" gradientUnits="userSpaceOnUse">
<stop stop-color="#BD00FF"/>
<stop offset="1" stop-color="#0091FF"/>
</linearGradient>
<clipPath id="clip0_190_1333">
<rect width="9.96875" height="9.96875" fill="white" transform="matrix(0.866025 0.5 -2.20305e-08 1 39.8269 38.9329)"/>
</clipPath>
</defs>
</svg>
