<svg width="100" height="100" viewBox="0 0 100 100" fill="none" xmlns="http://www.w3.org/2000/svg">
<g clip-path="url(#clip0_477_2093)">
<path d="M88.69 74.54C86.2 70.23 82.94 66.9 79.66 65.01C76.39 63.12 73.05 62.64 70.47 64.13L65.08 67.26L66.82 70.27C66.71 70.99 66.64 71.74 66.64 72.53C66.64 76.32 67.89 80.81 70.38 85.12C72.87 89.43 76.13 92.76 79.41 94.65C80.09 95.04 80.77 95.36 81.45 95.63L83.21 98.67L88.6 95.54C91.18 94.05 92.43 90.92 92.43 87.14C92.43 83.36 91.18 78.86 88.69 74.55V74.54Z" fill="#FF5A26" stroke="#76509B" stroke-width="0.5"/>
<path d="M83.21 98.66C85.79 97.17 87.04 94.04 87.04 90.26C87.04 86.48 85.79 81.98 83.3 77.67C80.81 73.36 77.55 70.03 74.27 68.14C71 66.25 67.66 65.77 65.08 67.25C62.5 68.75 61.25 71.88 61.25 75.66C61.25 79.45 62.5 83.94 64.99 88.25C67.48 92.56 70.74 95.89 74.02 97.78C77.29 99.67 80.63 100.15 83.21 98.67V98.66Z" fill="#FF855E" stroke="#76509B" stroke-width="0.5"/>
</g>
<path d="M74.2982 85.1048L78.4413 87.4969C78.5297 87.5479 78.5714 87.5719 78.5778 87.4419C78.6116 86.9748 78.6116 86.4853 78.5778 85.9785C78.5778 85.8838 78.537 85.8212 78.4482 85.77L70.2026 81.0093C70.1005 80.9504 70.073 80.9737 70.073 81.0841L70.073 82.4847C70.073 82.6654 70.073 82.6654 70.2364 82.7598L74.2982 85.1048ZM78.1151 83.9408C78.1268 83.9119 78.1268 83.8728 78.1151 83.8309C78.0459 83.617 77.9639 83.4037 77.8687 83.1929C77.7255 82.8439 77.5567 82.5011 77.3643 82.1697C77.2736 81.9841 77.1686 81.804 77.0508 81.6346C76.461 80.7144 75.7599 79.8994 75.0062 79.2581C74.6259 78.9399 74.2373 78.6686 73.8477 78.4476L70.1883 76.3348C70.0863 76.2759 70.0725 76.315 70.0725 76.4176L70.0725 79.2108C70.0725 79.3286 70.0725 79.3603 70.2021 79.4351L78.066 83.9753C78.066 83.9753 78.1342 83.9989 78.1479 83.9598L78.1146 83.9405L78.1151 83.9408ZM78.1151 88.9453C77.9993 88.8637 77.8825 88.7963 77.7667 88.7442L70.2094 84.381C70.1074 84.3221 70.073 84.3023 70.073 84.4598L70.073 87.1906C70.073 87.3164 70.073 87.3482 70.2094 87.4269L73.6986 89.4414C73.8654 89.5524 74.0322 89.6351 74.1956 89.6892C74.702 89.9397 75.2 90.1003 75.675 90.1654C75.8477 90.196 76.0145 90.2023 76.172 90.185L76.2196 90.2125C77.0375 90.1935 77.7019 89.8054 78.1209 89.1C78.1209 89.1 78.1685 89.0085 78.1151 88.9465L78.1151 88.9453ZM68.7036 87.9734L68.7036 87.9263L68.7036 86.0929L68.7036 85.4714L68.7036 83.6221C68.7036 83.5195 68.7036 83.5042 68.5947 83.4414L67.1158 82.5875C67.0339 82.5402 67 82.5207 67 82.3949L67 80.8997L68.5809 81.8125C68.6692 81.8635 68.7036 81.8833 68.7036 81.7496L68.7036 80.2703C68.7036 80.1756 68.7036 80.1524 68.5947 80.0895L67.1158 79.2357C67.0339 79.1884 67 79.1688 67 79.0431L67 77.6584C67 77.5717 67 77.5484 67.1089 77.6113L68.5741 78.4572C68.6761 78.5161 68.7036 78.532 68.7036 78.3824L68.7036 74.1411C68.7036 74.0153 68.7036 73.9836 68.84 74.0623L73.9508 77.013C74.3217 77.2442 74.6902 77.504 75.0548 77.7921C75.806 78.3861 76.5277 79.1127 77.1877 79.9363C77.6254 80.4864 78.0282 81.0782 78.3869 81.6989C78.6567 82.1782 78.9001 82.6688 79.116 83.1663C79.3304 83.668 79.5085 84.1748 79.6484 84.6776C79.6656 84.7974 79.7568 84.9244 79.852 84.9606L81.0718 85.6649C81.2283 85.7552 81.2283 85.7552 81.2352 85.9326L81.2352 87.2232C81.2352 87.349 81.1945 87.3572 81.0851 87.294L80.1444 86.751C80.0493 86.696 80.0218 86.6802 80.0286 86.8258C80.0659 87.3266 80.0659 87.8076 80.0286 88.2654C80.0286 88.3991 80.0286 88.415 80.1587 88.4901L81.2347 89.1113C81.2823 89.2096 81.2347 89.253 81.2347 89.3244C81.2416 89.4195 81.2416 89.5119 81.2347 89.5991L81.2347 90.5515C81.2347 90.6853 81.2008 90.7054 81.0983 90.6462L79.8103 89.9025C79.7205 89.8309 79.6332 89.8467 79.6126 89.938C79.3059 90.6816 78.8152 91.2238 78.1813 91.5195C77.9497 91.6266 77.7063 91.7127 77.4522 91.7751C77.1794 91.7989 76.9139 91.8343 76.6342 91.8224C76.1195 91.7926 75.5798 91.6782 75.0258 91.4836C74.4998 91.2887 73.9665 91.03 73.4312 90.7125L68.7016 87.9819L68.7016 87.9739L68.7036 87.9734Z" fill="#FFE15F"/>
<g clip-path="url(#clip1_477_2093)">
<path d="M35.69 46.54C33.2 42.23 29.94 38.9 26.66 37.01C23.39 35.12 20.05 34.64 17.47 36.13L12.08 39.26L13.82 42.27C13.71 42.99 13.64 43.74 13.64 44.53C13.64 48.32 14.89 52.81 17.38 57.12C19.87 61.43 23.13 64.76 26.41 66.65C27.09 67.04 27.77 67.36 28.45 67.63L30.21 70.67L35.6 67.54C38.18 66.05 39.43 62.92 39.43 59.14C39.43 55.36 38.18 50.86 35.69 46.55V46.54Z" fill="#EC80B5" stroke="#76509B" stroke-width="0.5"/>
<path d="M30.21 70.66C32.79 69.17 34.04 66.04 34.04 62.26C34.04 58.48 32.79 53.98 30.3 49.67C27.81 45.36 24.55 42.03 21.27 40.14C18 38.25 14.66 37.77 12.08 39.25C9.5 40.75 8.25 43.88 8.25 47.66C8.25 51.45 9.5 55.94 11.99 60.25C14.48 64.56 17.74 67.89 21.02 69.78C24.29 71.67 27.63 72.15 30.21 70.67V70.66Z" fill="#F5B7D3" stroke="#76509B" stroke-width="0.5"/>
<path d="M20.123 59.3439L15 52.885L20.1019 64.2127L25.2581 58.8458L20.123 59.3439ZM20.2037 45L15.0593 51.8466L20.1824 58.3055L25.3174 57.8074L20.2037 45Z" fill="#754F9A"/>
</g>
<path d="M43 43.0496L42.6391 34.1241C42.6319 33.938 42.5453 33.7444 42.4442 33.67L37.3773 30.0298C37.334 30 37.2979 29.9926 37.269 30.0074H37.2546C37.2546 30.0074 37.2402 30.0149 37.233 30.0223L34.2015 31.66L36.6772 37.3921L35.1181 39.1414C35.0315 39.2382 35.0315 39.469 35.1181 39.6625L35.9626 41.6203L33.8045 45L36.8648 43.3474L36.8793 43.3251C36.8793 43.3251 36.9009 43.3251 36.9081 43.3102L38.46 41.5608L39.8242 44.9851L42.8845 43.3325V43.3176C42.9423 43.2878 42.9928 43.206 42.9856 43.0496H43Z" fill="#8194FF" stroke="#76509B" stroke-width="0.5" stroke-linejoin="round"/>
<path d="M39.5787 35.7841C39.5715 35.598 39.4849 35.4045 39.3839 35.33L34.3169 31.6898C34.122 31.5484 34.0138 31.8908 34.1509 32.2184L35.9626 36.4169L32.065 40.794C31.9783 40.8908 31.9783 41.1216 32.065 41.3151L33.5663 44.7841C33.6529 44.9777 33.7828 45.0595 33.8694 44.9628L37.7671 40.5782L39.5787 44.7767C39.7159 45.0968 39.9541 45.0521 39.9396 44.7097L39.5787 35.7841Z" fill="white" stroke="#76509B" stroke-width="0.5"/>
<g clip-path="url(#clip2_477_2093)">
<path fill-rule="evenodd" clip-rule="evenodd" d="M53.0764 75.7503L49.7558 72.8798H49.7479L48.6299 71.5597L49.1606 73.7067L45.9261 75.6646V71.3354L48.313 71.1855L47.2575 69.9391L45.558 67.9344L45.3779 66.2184L44.8297 65.1263C44.7749 65.0171 44.7435 64.9001 44.7435 64.7909C44.7435 64.6895 44.7749 64.5569 44.8845 64.4711L45.1743 64.2449L45.4249 63.3322L48.9726 61.2652C49.0431 61.2106 49.1057 61.2028 49.1762 61.2028H49.1919C49.2232 61.2028 49.2624 61.2028 49.2937 61.2106C49.3877 61.2418 49.466 61.3042 49.5287 61.3666C49.654 61.4914 49.7558 61.6942 49.7558 61.897V65.5709L56.444 69.5725C56.5536 69.6349 56.6398 69.7363 56.7024 69.8455C56.7651 69.9547 56.8042 70.0873 56.8042 70.2121V73.34C56.8042 73.4648 56.7572 73.6053 56.6319 73.6833L53.0764 75.7503Z" fill="#8194FF"/>
<path d="M49.7558 72.8798L49.9193 72.6907C49.8738 72.6514 49.8158 72.6298 49.7558 72.6298V72.8798ZM53.0764 75.7503L52.9129 75.9395C52.9936 76.0093 53.1098 76.0201 53.202 75.9665L53.0764 75.7503ZM49.7479 72.8798L49.5572 73.0414C49.6047 73.0975 49.6744 73.1298 49.7479 73.1298V72.8798ZM48.6299 71.5597L48.8207 71.3981C48.7457 71.3095 48.6195 71.2843 48.5162 71.3371C48.4128 71.3899 48.3594 71.507 48.3872 71.6197L48.6299 71.5597ZM49.1606 73.7067L49.29 73.9206C49.3836 73.8639 49.4295 73.753 49.4033 73.6468L49.1606 73.7067ZM45.9261 75.6646H45.6761C45.6761 75.7549 45.7247 75.8381 45.8034 75.8824C45.882 75.9267 45.9784 75.9252 46.0556 75.8785L45.9261 75.6646ZM45.9261 71.3354L45.9104 71.0859C45.7787 71.0942 45.6761 71.2035 45.6761 71.3354H45.9261ZM48.313 71.1855L48.3287 71.435C48.4231 71.4291 48.506 71.3705 48.543 71.2835C48.5801 71.1965 48.5649 71.0961 48.5038 71.0239L48.313 71.1855ZM47.2575 69.9391L47.4483 69.7775L47.4482 69.7774L47.2575 69.9391ZM45.558 67.9344L45.3094 67.9605C45.3146 68.0105 45.3348 68.0578 45.3673 68.0961L45.558 67.9344ZM45.3779 66.2184L45.6265 66.1923C45.6234 66.1623 45.6148 66.1331 45.6013 66.1062L45.3779 66.2184ZM44.8297 65.1263L44.6063 65.2385L44.6063 65.2385L44.8297 65.1263ZM44.8845 64.4711L44.7307 64.274L44.7304 64.2742L44.8845 64.4711ZM45.1743 64.2449L45.3281 64.4419C45.3705 64.4088 45.4011 64.363 45.4153 64.3111L45.1743 64.2449ZM45.4249 63.3322L45.299 63.1162C45.2425 63.1492 45.2011 63.203 45.1838 63.266L45.4249 63.3322ZM48.9726 61.2652L49.0985 61.4812C49.1079 61.4756 49.117 61.4695 49.1257 61.4628L48.9726 61.2652ZM49.2937 61.2106L49.3725 60.9733C49.3664 60.9713 49.3603 60.9695 49.3541 60.968L49.2937 61.2106ZM49.5287 61.3666L49.7051 61.1894L49.7051 61.1894L49.5287 61.3666ZM49.7558 65.5709H49.5058C49.5058 65.6589 49.552 65.7403 49.6274 65.7855L49.7558 65.5709ZM56.444 69.5725L56.3156 69.7871L56.3203 69.7898L56.444 69.5725ZM56.7024 69.8455L56.4856 69.9699L56.4856 69.9699L56.7024 69.8455ZM56.6319 73.6833L56.7576 73.8995L56.764 73.8955L56.6319 73.6833ZM49.5923 73.069L52.9129 75.9395L53.2399 75.5612L49.9193 72.6907L49.5923 73.069ZM49.7479 73.1298H49.7558V72.6298H49.7479V73.1298ZM48.4392 71.7213L49.5572 73.0414L49.9387 72.7183L48.8207 71.3981L48.4392 71.7213ZM49.4033 73.6468L48.8726 71.4997L48.3872 71.6197L48.9179 73.7667L49.4033 73.6468ZM46.0556 75.8785L49.29 73.9206L49.0311 73.4929L45.7966 75.4507L46.0556 75.8785ZM45.6761 71.3354V75.6646H46.1761V71.3354H45.6761ZM48.2974 70.936L45.9104 71.0859L45.9418 71.5849L48.3287 71.435L48.2974 70.936ZM47.0667 70.1007L48.1223 71.3471L48.5038 71.0239L47.4483 69.7775L47.0667 70.1007ZM45.3673 68.0961L47.0668 70.1008L47.4482 69.7774L45.7487 67.7728L45.3673 68.0961ZM45.1293 66.2445L45.3094 67.9605L45.8067 67.9083L45.6265 66.1923L45.1293 66.2445ZM44.6063 65.2385L45.1545 66.3305L45.6013 66.1062L45.0531 65.0142L44.6063 65.2385ZM44.4935 64.7909C44.4935 64.9461 44.5374 65.1013 44.6063 65.2385L45.0531 65.0142C45.0123 64.9329 44.9935 64.8542 44.9935 64.7909H44.4935ZM44.7304 64.2742C44.5365 64.4259 44.4935 64.6488 44.4935 64.7909H44.9935C44.9935 64.7644 44.9978 64.737 45.0065 64.7141C45.0147 64.6927 45.0254 64.6783 45.0386 64.668L44.7304 64.2742ZM45.0204 64.0478L44.7307 64.274L45.0383 64.6682L45.3281 64.4419L45.0204 64.0478ZM45.1838 63.266L44.9332 64.1787L45.4153 64.3111L45.666 63.3984L45.1838 63.266ZM48.8467 61.0492L45.299 63.1162L45.5507 63.5483L49.0985 61.4812L48.8467 61.0492ZM49.1762 60.9528C49.0782 60.9528 48.9517 60.9651 48.8195 61.0675L49.1257 61.4628C49.1313 61.4585 49.1346 61.4567 49.1357 61.4562C49.1367 61.4557 49.1373 61.4554 49.1382 61.4552C49.1407 61.4545 49.149 61.4528 49.1762 61.4528V60.9528ZM49.1919 60.9528H49.1762V61.4528H49.1919V60.9528ZM49.3541 60.968C49.2872 60.9513 49.2151 60.9528 49.1919 60.9528V61.4528C49.2085 61.4528 49.2193 61.4528 49.229 61.4534C49.2334 61.4536 49.236 61.4539 49.2372 61.454C49.2386 61.4542 49.237 61.4541 49.2333 61.4532L49.3541 60.968ZM49.7051 61.1894C49.6304 61.1151 49.5195 61.0221 49.3725 60.9733L49.2149 61.4478C49.2559 61.4614 49.3016 61.4932 49.3522 61.5437L49.7051 61.1894ZM50.0058 61.897C50.0058 61.6179 49.8701 61.3538 49.7051 61.1894L49.3522 61.5437C49.4378 61.629 49.5058 61.7704 49.5058 61.897H50.0058ZM50.0058 65.5709V61.897H49.5058V65.5709H50.0058ZM56.5723 69.358L49.8841 65.3564L49.6274 65.7855L56.3156 69.787L56.5723 69.358ZM56.9193 69.7211C56.8424 69.5871 56.728 69.4465 56.5676 69.3552L56.3203 69.7898C56.3792 69.8233 56.4371 69.8855 56.4856 69.9699L56.9193 69.7211ZM57.0542 70.2121C57.0542 70.0387 57.001 69.8636 56.9193 69.7211L56.4856 69.9699C56.5291 70.0458 56.5542 70.1359 56.5542 70.2121H57.0542ZM57.0542 73.34V70.2121H56.5542V73.34H57.0542ZM56.764 73.8955C56.987 73.7567 57.0542 73.518 57.0542 73.34H56.5542C56.5542 73.4117 56.5274 73.4538 56.4998 73.471L56.764 73.8955ZM53.202 75.9665L56.7576 73.8994L56.5063 73.4671L52.9507 75.5342L53.202 75.9665Z" fill="#76509B"/>
<path d="M41.3368 66.5382C41.2271 66.624 41.1958 66.7566 41.1958 66.858C41.1958 66.9672 41.2271 67.0842 41.2819 67.1934L45.3701 75.298C45.464 75.4852 45.6207 75.6412 45.8086 75.6646C45.9104 75.6802 46.0201 75.6568 46.0984 75.571C46.1767 75.493 46.2002 75.3838 46.2002 75.2824V71.8502L52.6848 75.7348C52.7944 75.7972 52.9432 75.8362 53.0685 75.7504C53.1938 75.6724 53.2408 75.532 53.2408 75.4072V72.2792C53.2408 72.1544 53.2017 72.0218 53.139 71.9126C53.0764 71.8034 52.9902 71.702 52.8806 71.6396L46.2002 67.6381V63.9719C46.2002 63.7691 46.0984 63.5663 45.9731 63.4415C45.9104 63.3791 45.8321 63.3167 45.7381 63.2855C45.6442 63.2543 45.5189 63.2543 45.417 63.3323L41.3368 66.5382Z" fill="white" stroke="#76509B" stroke-width="0.5"/>
</g>
<path d="M70.9767 52.3233L67.8594 46.272L70.7375 42.6075C70.9767 42.3102 70.9688 41.9245 70.7216 42.0129L64.487 43.7165C64.487 43.7165 64.3754 43.7487 64.3435 43.7808L60.3651 46.3122L61.7045 51.5277L61.1305 53.2876C61.0109 53.6412 61.2421 53.7617 61.4813 53.4644L62.0234 52.7894L63.3549 57.9887L67.5325 55.3127C67.5325 55.3127 67.5963 55.2645 67.6362 55.2404L70.8252 52.8697C70.9688 52.6929 71.0325 52.4518 70.9767 52.3313V52.3233Z" fill="#8194FF" stroke="#76509B" stroke-width="0.5" stroke-linejoin="round"/>
<path d="M60.0223 46.7221C60.0861 46.5292 60.2296 46.3524 60.3571 46.3042L66.6236 44.6086C66.8708 44.5202 66.8788 44.9059 66.6396 45.2032L63.7615 48.8677L66.8788 54.919C66.9346 55.0395 66.8708 55.2806 66.7273 55.4574L63.5382 57.828C63.3947 58.0048 63.2353 58.045 63.1795 57.9245L60.4688 52.2268L57.3833 56.0521C57.1441 56.3494 56.9129 56.2289 57.0325 55.8753L60.0223 46.7221Z" fill="white" stroke="#76509B" stroke-width="0.5"/>
<g clip-path="url(#clip3_477_2093)">
<path d="M65.69 13.54C63.2 9.22998 59.94 5.89999 56.66 4.00999C53.39 2.11999 50.05 1.63999 47.47 3.12999L42.08 6.25999L43.82 9.26999C43.71 9.98999 43.64 10.74 43.64 11.53C43.64 15.32 44.89 19.81 47.38 24.12C49.87 28.43 53.13 31.76 56.41 33.65C57.09 34.04 57.77 34.36 58.45 34.63L60.21 37.67L65.6 34.54C68.18 33.05 69.43 29.92 69.43 26.14C69.43 22.36 68.18 17.86 65.69 13.55V13.54Z" fill="#4E66EC" stroke="#76509B" stroke-width="0.5"/>
<path d="M60.21 37.66C62.79 36.17 64.04 33.04 64.04 29.26C64.04 25.48 62.79 20.98 60.3 16.67C57.81 12.36 54.55 9.03001 51.27 7.14001C48 5.25001 44.66 4.77001 42.08 6.25001C39.5 7.75001 38.25 10.88 38.25 14.66C38.25 18.45 39.5 22.94 41.99 27.25C44.48 31.56 47.74 34.89 51.02 36.78C54.29 38.67 57.63 39.15 60.21 37.67V37.66Z" fill="#78C2FF" stroke="#76509B" stroke-width="0.5"/>
<path d="M54.06 26.5571C54.06 24.4358 52.8965 22.9862 50.692 21.4306C49.0998 20.2285 48.7936 19.5567 48.7936 18.7082C48.7936 17.8597 49.2835 17.5768 50.3858 18.2132C51.3656 18.7789 51.9167 19.4507 52.1004 20.476C52.1617 20.7235 52.3454 20.9002 52.4679 20.9709L53.3252 21.4659C53.5701 21.6073 53.6926 21.5366 53.6926 21.2538C53.5089 19.8042 52.4679 18.1425 51.3044 17.4001L51.3043 15.9858C51.3043 15.703 51.1819 15.4909 50.8757 15.2434L50.0184 14.7484C49.7734 14.607 49.6509 14.6777 49.5897 14.9959V16.4101C47.9975 15.7737 46.9565 16.3747 46.9565 17.9304C46.9565 19.9103 48.0588 21.3952 50.2633 22.9508C51.733 24.0822 52.2229 24.7893 52.2229 25.7793C52.2229 26.7692 51.4881 27.0521 50.447 26.3803C49.0998 25.6025 48.6099 24.6125 48.4262 23.5872C48.365 23.3397 48.2425 23.1276 48.0588 22.9508L47.2015 22.4559C46.9565 22.3144 46.834 22.3852 46.834 22.668C47.079 24.3651 47.8751 25.8853 49.6509 27.2642V28.6784C49.6509 28.9612 49.7734 29.1734 50.0796 29.4209L50.9369 29.9158C51.1819 30.0573 51.3044 29.9865 51.3656 29.6684V28.2541C53.019 28.8552 54.06 28.2541 54.06 26.5571Z" fill="#4E66EC"/>
<path d="M47.8751 29.4209C43.7109 25.3196 41.6289 18.7436 43.1598 14.8898C43.9559 12.7331 45.7318 11.8493 47.8751 12.1675C48.12 12.1675 48.1813 11.9907 48.1813 11.7078L48.1813 10.8593C48.1813 10.5765 48.0588 10.3643 47.8751 10.1876C47.8751 10.1876 47.7526 10.1168 47.6914 10.1522C42.6699 9.09154 39.853 13.6877 41.4452 20.4053C42.3637 24.4004 44.6907 28.4309 47.6914 31.224C47.9363 31.5068 48.0588 31.4361 48.1813 31.224C48.2425 31.1886 48.2425 31.1886 48.2425 31.0472L48.2425 30.1987C48.1813 29.9512 47.9975 29.633 47.8751 29.4209ZM53.4477 13.4756C53.2639 13.1574 53.0802 13.2635 53.019 13.4403C52.9578 13.4756 52.9578 13.4756 52.9578 13.617L52.9578 14.4656C52.9578 14.7484 53.0802 15.102 53.2639 15.2787C57.4281 19.3799 59.5101 25.956 57.9792 29.8098C57.1831 31.9664 55.4072 32.8503 53.2639 32.5321C53.019 32.5321 52.9578 32.7089 52.9578 32.9918L52.9578 33.8403C52.9578 34.1231 53.0802 34.3353 53.2639 34.512C53.2639 34.512 53.3864 34.5827 53.4477 34.5474C58.4691 35.608 61.286 31.0119 59.6939 24.2943C58.7753 20.2992 56.4483 16.2687 53.4477 13.4756Z" fill="#4E66EC"/>
</g>
<defs>
<clipPath id="clip0_477_2093">
<rect width="31.68" height="36.79" fill="white" transform="translate(61 63)"/>
</clipPath>
<clipPath id="clip1_477_2093">
<rect width="31.68" height="36.79" fill="white" transform="translate(8 35)"/>
</clipPath>
<clipPath id="clip2_477_2093">
<rect width="16" height="15" fill="white" transform="translate(41 61)"/>
</clipPath>
<clipPath id="clip3_477_2093">
<rect width="31.68" height="36.79" fill="white" transform="translate(38 2)"/>
</clipPath>
</defs>
</svg>
